<svg xmlns="http://www.w3.org/2000/svg" viewBox="0 0 481.882 481.882" style="enable-background:new 0 0 481.882 481.882" xml:space="preserve"><path style="fill:#ac2200" d="M406.588 331.294c0 91.482-74.165 150.588-165.647 150.588-91.475 0-165.647-59.106-165.647-150.588 0-103.198 90.353-120.471 165.647-330.089 75.294 209.619 165.647 227.757 165.647 330.089z"/><path style="fill:#d22600" d="M75.294 330.089c0 91.475 74.172 150.588 165.647 150.588V0C165.647 209.619 75.294 226.891 75.294 330.089z"/><path style="fill:#fff" d="M331.294 308.706a7.527 7.527 0 0 0-7.529-7.529h-52.706v-52.706a7.527 7.527 0 0 0-7.529-7.529h-45.176a7.532 7.532 0 0 0-7.529 7.529v52.706h-52.706a7.532 7.532 0 0 0-7.529 7.529v45.176a7.532 7.532 0 0 0 7.529 7.529h52.706v52.706a7.532 7.532 0 0 0 7.529 7.529h45.176a7.527 7.527 0 0 0 7.529-7.529v-52.706h52.706a7.527 7.527 0 0 0 7.529-7.529v-45.176z"/></svg>