<svg height="502pt" viewBox="0 -43 502.004 502" width="502pt" xmlns="http://www.w3.org/2000/svg"><path d="M137.98.012c79.762-.828 112.204 53 112.204 53S281.55.84 361.313.012c79.761-.828 140.015 65.949 140.66 128.16.644 62.21-8.57 106.777-123.383 204.523-40.32 34.325-74.207 58.711-96.406 73.63a51.542 51.542 0 0 1-56.668.59c-22.504-14.458-56.891-38.134-97.91-71.618C10.788 239.949.651 195.586.007 133.375S58.218.835 137.98.012zm0 0" fill="#ff8354"/><path d="M137.98.012c79.762-.828 112.204 53 112.204 53S281.55.84 361.313.012c79.761-.828 140.015 65.949 140.66 128.16.644 62.21-8.57 106.777-123.383 204.523-40.32 34.325-74.207 58.711-96.406 73.63a51.542 51.542 0 0 1-56.668.59c-22.504-14.458-56.891-38.134-97.91-71.618C10.788 239.949.651 195.586.007 133.375S58.218.835 137.98.012zm0 0" fill="#ff8354"/><path d="m378.336 312.906 10.75 10.75a1437.151 1437.151 0 0 1-10.5 9.04c-40.313 34.327-74.2 58.71-96.402 73.628a51.556 51.556 0 0 1-56.668.59c-22.5-14.457-56.891-38.14-97.91-71.617C10.795 239.945.655 195.586.003 133.375c-.027-2.75.07-5.508.27-8.29 2.113 56.372 17.972 100.95 127.331 190.212 41.02 33.476 75.41 57.16 97.91 71.617a51.556 51.556 0 0 0 56.669-.59c22.152-14.89 55.953-39.199 96.152-73.418zm60.309-36.269-9.86-9.864c60.3-60.418 71.7-98.34 73.059-142.507.07 1.3.113 2.609.133 3.91.5 48.918-5.082 86.918-63.332 148.46zm0 0" fill="#e0734a"/><path d="M12.34 81.52c.129-.27.254-.543.387-.813-.133.27-.258.543-.387.813zm2.164-4.29c.113-.218.223-.44.34-.664-.117.223-.227.446-.34.664zm-1.777 3.477zm2.117-4.141zm-4.09 8.344zm6.363-12.441zm-6.472 12.676c.035-.079.074-.157.109-.235-.035.078-.066.16-.106.238zm6.242-12.262c.078-.137.152-.278.23-.414-.082.136-.152.277-.23.414zM.004 133.375c-.16-15.977 3.613-32.492 10.644-48.227l6.778 6.778C7.594 108.824 1.574 127.145.273 145.086c-.148-3.84-.226-7.742-.27-11.711zm19.543-64.969a145.664 145.664 0 0 1 16.11-21.32 147.485 147.485 0 0 0-16.11 21.32zm38.269-41.289a148.8 148.8 0 0 0-20.492 18.156 146.77 146.77 0 0 1 20.492-18.156zm444.028 117.149c-3.059-61.07-62.438-125.059-140.528-124.25-79.761.82-111.132 53-111.132 53s-32.438-53.832-112.2-53c-24.27.25-46.59 6.941-65.898 17.859l-12.23-12.23c-.59.421-1.18.84-1.762 1.261C80.274 10.715 107.617.324 137.984.016c79.762-.832 112.2 53 112.2 53s31.37-52.18 111.132-53c79.758-.832 140.008 65.949 140.66 128.16a391.3 391.3 0 0 1-.132 16.09zm0 0" fill="#ffac8c"/><path d="M72.086 37.875c-23.219 13.148-42.07 32.43-54.66 54.05l-6.781-6.78a140.067 140.067 0 0 1 8.902-16.739 147.485 147.485 0 0 1 16.11-21.32c.55-.602 1.109-1.211 1.667-1.813a148.8 148.8 0 0 1 20.492-18.156c.09-.07.18-.133.278-.21.582-.423 1.172-.84 1.761-1.262zm0 0" fill="#fff7f2"/><path d="m234.664 202.355-.91 6.56a36.916 36.916 0 0 1-23.277 29.32l-29.211 11.242a36.899 36.899 0 0 1-39.32-8.34l-57.122-57.133a94.216 94.216 0 0 1-22.328-35.527l-6.48-18.512-.282.27-38.308-38.31c12.59-21.62 31.441-40.902 54.66-54.05l38.008 38.012 41.203-7.364a40.92 40.92 0 0 1 36.129 11.364l41.398 41.386c3.281 3.282 1.91 8.872-2.52 10.274a21.112 21.112 0 0 1-21.257-5.211l-4.863-4.86a30.408 30.408 0 0 0-11.047-7.07l-11.27-4.152a30.607 30.607 0 0 0-6.633-1.61l52.98 62.54a36.873 36.873 0 0 1 10.45 31.171zm0 0" fill="#ffefe4"/><path d="M176.86 161.453a4.918 4.918 0 0 0 0 6.957l52.843 52.844a36.818 36.818 0 0 0 3.684-10.234l-49.567-49.567a4.923 4.923 0 0 0-6.96 0zm-20.81 20.805a4.923 4.923 0 0 0 0 6.96l50.516 50.516 3.907-1.504a36.663 36.663 0 0 0 5.707-2.804l-53.168-53.168a4.923 4.923 0 0 0-6.961 0zm25.212 67.215 5.922-2.282-44.551-44.55c-1.922-1.922-5.04-1.922-6.961 0s-1.922 5.035 0 6.957l41.226 41.23a37.729 37.729 0 0 0 4.364-1.355zm257.383 27.164c-.84.886-1.7 1.789-2.57 2.687-.86.903-1.74 1.813-2.63 2.723-.09.09-.18.18-.261.27-.809.82-1.618 1.648-2.438 2.48a542.748 542.748 0 0 1-5.61 5.598c-.952.94-1.921 1.89-2.902 2.84a648.69 648.69 0 0 1-12.699 12.038c-.7.66-1.418 1.32-2.14 1.98-.73.68-1.47 1.364-2.211 2.032-.637.582-1.278 1.172-1.93 1.762a957.608 957.608 0 0 1-14.168 12.61l-10.75-10.75c.078-.071.168-.141.25-.212 19.668-16.75 36.238-31.941 50.2-45.922zm0 0" fill="#ffe4d1"/><path d="M428.785 266.773c-13.96 13.98-30.531 29.172-50.2 45.922-.081.07-.17.14-.25.211l-.28-.281-36.59 6.531a36.35 36.35 0 0 1-32.098-10.082l-36.773-36.77c-2.91-2.917-1.7-7.878 2.23-9.12a18.756 18.756 0 0 1 18.89 4.632l4.31 4.309a27.078 27.078 0 0 0 9.82 6.281l10.011 3.68c1.918.71 3.899 1.18 5.899 1.437l-47.07-55.558a32.708 32.708 0 0 1-9.278-27.68l.809-5.828c1.652-11.793 9.558-21.773 20.68-26.043l25.949-9.988a32.747 32.747 0 0 1 34.922 7.41l50.75 50.738a83.939 83.939 0 0 1 19.828 31.57l5.75 16.442.25-.242zm0 0" fill="#ffefe4"/><path d="M318.754 236.617a4.373 4.373 0 0 0 0-6.183l-46.942-46.942a32.586 32.586 0 0 0-3.269 9.094l44.027 44.031a4.373 4.373 0 0 0 6.184 0zm18.48-18.484a4.373 4.373 0 0 0 0-6.184l-44.87-44.87-3.47 1.331a32.832 32.832 0 0 0-5.07 2.492l47.23 47.23a4.369 4.369 0 0 0 6.18 0zm-22.39-59.707-5.262 2.027 39.578 39.578a4.369 4.369 0 0 0 6.18 0 4.373 4.373 0 0 0 0-6.183l-36.621-36.625a33.1 33.1 0 0 0-3.875 1.203zm0 0" fill="#ffe4d1"/></svg>