<svg xmlns="http://www.w3.org/2000/svg" viewBox="0 0 511.98 511.98" style="enable-background:new 0 0 511.98 511.98" xml:space="preserve"><circle style="fill:#fc5b6f" cx="255.99" cy="255.98" r="255.98"/><path style="fill:#e4a970" d="m282.775 212.585 16.908 60.716s-14.682 15.193-46.179 48.946-77.326 11.498-77.326 11.498c-29.912-11.171-50.659-21.987-48.278-36.519 2.232-13.618 16.451-14.464 16.451-14.464 7.822-.415 17.268.413 27.023 1.879l48.124-25.87s-23.026-36.565-27.308-62.396c-4.282-25.832 17.954-25.089 17.954-25.089 50.804-13.205 72.631 41.299 72.631 41.299z"/><path style="fill:#d69a67" d="m246.396 242.577-27.703 14.892c-4.104-6.728-22.7-38.144-26.504-61.093-4.282-25.832 17.954-25.089 17.954-25.089a65.064 65.064 0 0 1 8.748-1.656c-3.807 22.674 27.465 72.845 27.505 72.946zm-60.293 68.946s45.828 22.255 77.326-11.499c14.95-16.021 26.105-27.853 33.707-35.871l2.547 9.148s-14.682 15.193-46.179 48.946-77.326 11.498-77.326 11.498c-29.912-11.171-50.659-21.987-48.278-36.519 1.355-8.269 7.127-11.824 11.455-13.345 5.418 10.31 23.252 18.867 46.748 27.642z"/><path style="fill:#f7cf9c" d="M344.474 183.759c2.547 33.832 20.119 77.082 3.885 99.767-23.663 33.065-98.498 96.184-116.832 83.063-3.391-2.427-5.421-6.272-4.336-12.191l5.712-14.573c11.499-21.941 41.936-51.511 53.865-62.653a11.733 11.733 0 0 0 3.386-11.424c-2.617-10.46-7.823-25.864-10.336-36.428-2.573-10.814-7.371-21.003-14.42-29.598l-.471-.57c-9.827-11.772-23.832-19.284-39.044-21.225-6.402-.817-12.104-1.625-16.137-.947 0 0-15.92 1.444-13.905 13.602l12.603 40.596c2.398 3.827 47.453 62.027 28.835 94.314-.766 1.315-1.862 2.759-1.803 2.676-3.112 4.002-8.072 7.335-13.008 6.84-4.681-.39-6.633-4.277-33.871-32.812-11.862-12.482-24.414-25.159-32.39-30.867-13.294-9.513-34.657-59.986-43.937-83.109a43.1 43.1 0 0 0-14.918-19.009l-25.791-18.457 72.172-100.85 39.803 28.484a24.345 24.345 0 0 0 8.342 3.823c36.188 8.943 78.659 21.304 112.408 39.951 6.695 3.699 12.404 8.937 16.736 15.241 8.425 12.261 22.553 34.42 23.452 46.356z"/><path style="fill:#edb87e" d="M174.765 245.398c18.899 13.525 58.524 61.049 64.403 63.272 1.001.357 1.848.412 2.408.433-.507 13.128-6.158 19.147-6.1 19.066-4.3 5.53-12.007 9.145-16.799 5.351-7.885-6.209-44.916-49.629-62.469-62.191-13.294-9.513-34.658-59.987-43.937-83.109a43.107 43.107 0 0 0-14.918-19.009l-25.791-18.457 18.557-25.932 25.791 18.458a43.1 43.1 0 0 1 14.918 19.009c9.279 23.122 30.643 73.596 43.937 83.109z"/><path style="fill:#edb87e" d="m227.192 354.397 5.712-14.572c10.517-20.068 37.306-47.186 53.865-62.653l.005-.005c5.318-4.982 3.374-11.586 3.37-11.461-1.214-4.849-3.193-11.457-4.652-16.317l-.021-.071c-2.114-7.048-4.283-14.241-5.653-19.998-2.572-10.814-7.372-21.003-14.42-29.598-.155-.19-.313-.38-.471-.57-9.611-11.512-23.22-18.936-38.043-21.074l.019-.023c-5.94-.746-12.819-1.804-17.158-1.075-5.076.726-10.626 2.561-13.015 7.081l-.001.002s-.286-32.448 31.574-33.014c5.344-.898 13.246.806 21.484 1.496 25.541 2.143 46.677 20.783 52.668 45.704l17.149 71.329a14.996 14.996 0 0 1-4.309 14.608c-61.465 57.41-69.76 82.851-69.826 82.943l-.01.003-.098.027c-4.429 1.264-10.103 2.1-13.834-.57-4.085-2.923-5.241-7.25-4.335-12.192z"/><path style="fill:#efefef" d="M48.944 151.621 136.45 29.343l32.269 23.093a3.913 3.913 0 0 1 .905 5.46L86.672 173.809a3.913 3.913 0 0 1-5.46.905l-32.268-23.093z"/><path style="fill:#ddd" d="m107.614 137.821-32.269-23.093-26.401 36.892 32.269 23.093a3.913 3.913 0 0 0 5.46-.905l26.401-36.892a3.913 3.913 0 0 1-5.46.905z"/><path style="fill:#647892" d="M52.04 152.775a5.595 5.595 0 0 1-7.826 1.289c-1.079-.779-7.684-5.512-17.29-12.395C51.217 93.137 90.413 52.936 139.837 27.827a4.808 4.808 0 0 1-.85 3.452L52.04 152.775z"/><path style="fill:#4d6682" d="m44.214 154.063-.001-.001c-1.08-.778-7.226-5.184-17.289-12.393 6.957-13.898 14.731-26.382 23.571-38.297a22711.797 22711.797 0 0 1 19.831 14.204 5.595 5.595 0 0 0 7.826-1.288L52.04 152.775a5.594 5.594 0 0 1-7.826 1.288z"/><path style="fill:#32cc65" d="m259.838 205.998 238.827 137.887c7.077 4.086 9.304 13.158 5.361 19.986l-81.295 140.807c-4.011 6.947-12.997 9.387-19.989 5.35L163.915 372.141c-6.992-4.037-9.372-13.039-5.361-19.986l81.295-140.807c3.984-6.902 12.961-9.407 19.989-5.35z"/><path style="fill:#23b658" d="m183.791 368.293 82.652-143.157c2.872-4.974 8.294-7.687 13.752-7.384l-20.358-11.753c-7.028-4.058-16.004-1.552-19.989 5.35l-81.295 140.807c-4.011 6.947-1.63 15.949 5.361 19.986l20.357 11.753c-2.983-4.562-3.366-10.602-.48-15.602z"/><circle style="fill:#23b658" cx="331.29" cy="358.01" r="54.688"/><path style="fill:#16a847" d="M309.293 370.157c-12.385-21.451-8.575-47.798 7.62-64.916a54.725 54.725 0 0 0-12.968 5.411c-26.157 15.102-35.119 48.549-20.017 74.706 15.102 26.157 48.549 35.119 74.706 20.017a54.677 54.677 0 0 0 12.398-9.79c-23.392 6.389-49.045-3.442-61.739-25.428z"/><path style="fill:#7ce89b" d="M265.17 327.36a7.512 7.512 0 0 0 6.515-3.759 7.514 7.514 0 0 0-2.751-10.266l-14.416-8.323a7.515 7.515 0 1 0-7.515 13.017l14.416 8.323a7.486 7.486 0 0 0 3.751 1.008zm146.641 84.663a7.512 7.512 0 0 0 6.515-3.759 7.514 7.514 0 0 0-2.751-10.266l-14.416-8.323a7.513 7.513 0 0 0-10.266 2.751 7.514 7.514 0 0 0 2.751 10.266l14.416 8.323a7.486 7.486 0 0 0 3.751 1.008z"/><path style="fill:#23b658" d="m259.838 205.999 42.601 24.596c-17.625 30.528-56.662 40.988-87.19 23.363l24.6-42.608c3.984-6.904 12.961-9.409 19.989-5.351z"/><path style="fill:#16a847" d="M215.248 253.957a63.532 63.532 0 0 0 29.641 8.513 571566.01 571566.01 0 0 0 21.554-37.333c2.872-4.974 8.294-7.687 13.752-7.384l-15.494-8.946c-6.185-3.57-11.813-7.518-19.866-2.574a14.495 14.495 0 0 0-4.986 5.117c-8.636 14.952 16.833-29.158-24.601 42.607z"/><path style="fill:#23b658" d="m498.665 343.885-42.601-24.596c-17.625 30.528-7.166 69.565 23.363 87.19l24.6-42.608c3.984-6.902 1.665-15.928-5.362-19.986zm-334.75 28.257 42.601 24.596c17.625-30.528 7.166-69.565-23.363-87.19l-24.6 42.608c-3.985 6.902-1.666 15.928 5.362 19.986z"/><path style="fill:#16a847" d="M205.345 330.96a63.538 63.538 0 0 0-22.192-21.413l-24.6 42.608c-4.006 6.94-1.624 15.948 5.361 19.986l20.357 11.753c-2.984-4.562-3.367-10.601-.48-15.601l21.554-37.333z"/><path style="fill:#23b658" d="m402.742 510.029-42.601-24.596c17.625-30.528 56.662-40.988 87.19-23.363l-24.6 42.608c-3.985 6.903-12.961 9.408-19.989 5.351z"/><path style="fill:#16a847" d="m481.909 334.211-25.845-14.922c-17.625 30.528-7.166 69.564 23.363 87.19l3.676-6.367c-12.073-19.362-13.35-44.634-1.194-65.901zm-38.327 134.352 3.749-6.493c-30.529-17.625-69.565-7.166-87.19 23.363l25.841 14.919c12.246-21.139 34.768-32.619 57.6-31.789z"/><path style="fill:#7ce89b" d="M316.22 335.472c-5.164 8.737-2.765 19.883 5.227 25.789l-4.751 8.038-3.554-2.1a7.516 7.516 0 0 0-7.648 12.94l3.567 2.108c-1.902 3.533-.696 7.965 2.787 10.026 3.515 2.078 8.027.96 10.184-2.479 9.03 4.16 19.957.886 25.123-7.855a19.517 19.517 0 0 0 2.114-14.888 19.49 19.49 0 0 0-7.342-10.9l4.751-8.038 4.125 2.438a7.515 7.515 0 0 0 10.368-10.168 7.477 7.477 0 0 0-2.72-2.772l-4.226-2.498a7.515 7.515 0 0 0-.466-6.377 7.477 7.477 0 0 0-2.72-2.772c-3.232-1.91-7.305-1.116-9.617 1.695-9.045-4.217-20.021-.953-25.202 7.813zm12.94 7.648a4.586 4.586 0 0 1 2.824-2.122 4.57 4.57 0 0 1 1.506-.114l-4.201 7.109c-.931-1.427-1.053-3.31-.129-4.873zm5.055 31.171c-.923 1.563-2.631 2.364-4.33 2.235l4.2-7.106c.931 1.426 1.053 3.308.13 4.871z"/><path style="fill:#f7cf9c" d="M208.443 231.179c2.398 3.827 47.453 62.027 28.835 94.314-.766 1.315-1.862 2.759-1.803 2.676-3.112 4.002-8.072 7.335-13.008 6.84-4.681-.39-6.633-4.277-33.871-32.812-32.655-34.362-30.36-27.586-36.775-35.103l47.266-66.048 9.356 30.133z"/><path style="fill:#edb87e" d="M170.379 241.162c1.533 1.796 3.004 3.247 4.385 4.236 18.899 13.525 58.524 61.049 64.403 63.272 1.001.356 1.848.412 2.408.433-.462 11.972-6.098 23.986-16.461 25.817-5.341.847-7.415-1.937-13.229-7.956-4.508-4.753-11.375-12.272-22.68-24.129-34.049-35.995-30.281-27.422-37.379-35.736a.017.017 0 0 1-.003-.004l18.556-25.933z"/></svg>