<svg xmlns="http://www.w3.org/2000/svg" viewBox="0 0 512.003 512.003" style="enable-background:new 0 0 512.003 512.003" xml:space="preserve"><path style="fill:#ffe1a0" d="m371.588 286.599 24.607-14.764a48.095 48.095 0 0 0 19.206-21.709l21.801-49.052c2.194-4.937 6.811-8.166 12.063-8.897l.044-.307-28.385-91.062c-2.254-7.23 1.691-14.934 8.874-17.333l.309-.103c6.621-2.207 13.788.65 17.029 6.754 11.246 21.182 36.578 68.286 46.335 86.417a39.902 39.902 0 0 1 4.628 15.631l6.292 75.5a32.065 32.065 0 0 1-6.539 22.213l-67.159 87.307a16.035 16.035 0 0 0-2.304 15.405l20.92 55.786h-80.161l-26.088-88.701c-8.241-28.015 3.487-58.06 28.528-73.085z"/><path style="fill:#f7d291" d="M478.891 264.984c-.852-7.697-11.356-9.144-13.961-1.852l-13.861 38.812a8.01 8.01 0 1 1-15.084-5.4l-33.945-28.859a48.074 48.074 0 0 0 13.36-17.56l21.801-49.052c2.194-4.937 6.811-8.166 12.063-8.897l.044-.307-4.74-15.206a34.465 34.465 0 0 1 6.796-.826c12.43-.251 20.679 6.287 20.679 6.287a39.887 39.887 0 0 0-4.626-15.602c-8.853-16.452-30.492-56.69-42.834-79.84 1.447-1.396 3.182-2.53 5.214-3.207l.309-.103c6.621-2.207 13.788.65 17.029 6.754 11.264 21.215 36.657 68.433 46.38 86.501a39.415 39.415 0 0 1 4.574 15.452l6.299 75.595a32.06 32.06 0 0 1-6.539 22.212l-67.159 87.307a16.035 16.035 0 0 0-2.304 15.405l20.92 55.786H420.03l-15.002-56.331a40.082 40.082 0 0 1 7.01-34.816l60.399-69.176a32.052 32.052 0 0 0 6.454-23.077z"/><path style="fill:#ffe1a0" d="m415.401 250.126 21.801-49.052a15.498 15.498 0 0 1 14.163-9.204c10.718 0 18.2 10.618 14.596 20.711l-32.684 91.515-37.081-32.261a48.104 48.104 0 0 0 19.205-21.709zm-274.986 36.473-24.607-14.764a48.095 48.095 0 0 1-19.206-21.709l-21.801-49.052c-2.194-4.937-6.811-8.166-12.063-8.897l-.044-.307 28.385-91.062c2.254-7.23-1.691-14.934-8.874-17.333l-.309-.103c-6.621-2.207-13.788.65-17.029 6.754-11.246 21.182-36.578 68.286-46.335 86.417a39.902 39.902 0 0 0-4.628 15.631l-6.292 75.5a32.065 32.065 0 0 0 6.539 22.213l67.159 87.307a16.035 16.035 0 0 1 2.304 15.405l-20.92 55.786h80.161l26.088-88.701c8.24-28.015-3.488-58.06-28.528-73.085z"/><path style="fill:#ff8087" d="M256.001 296.08s126.801-87.553 126.801-160.01c0-40.018-32.44-72.457-72.457-72.457-21.767 0-41.062 9.796-54.343 24.99-13.281-15.194-32.576-24.99-54.343-24.99-40.018 0-72.457 32.44-72.457 72.457-.001 72.457 126.799 160.01 126.799 160.01z"/><path style="fill:#e6646e" d="M175.84 109.851c0-16.119 3.448-31.214 9.414-44.303-32.103 7.443-56.053 36.155-56.053 70.522 0 60.27 87.732 130.985 117.245 153.068a15.914 15.914 0 0 0 19.111 0c2.6-1.946 5.672-4.288 9.076-6.948-37.342-37.839-98.793-109.626-98.793-172.339z"/><path style="fill:#f7d291" d="M33.111 264.984c.852-7.697 11.356-9.144 13.961-1.852l13.861 38.812a8.01 8.01 0 1 0 15.084-5.4l33.945-28.859a48.074 48.074 0 0 1-13.36-17.56l-21.801-49.052c-2.194-4.937-6.811-8.166-12.063-8.897l-.044-.307 4.74-15.206a34.465 34.465 0 0 0-6.796-.826c-12.43-.251-20.679 6.287-20.679 6.287a39.887 39.887 0 0 1 4.626-15.602c8.853-16.452 30.492-56.69 42.834-79.84-1.447-1.396-3.182-2.53-5.214-3.207l-.309-.103c-6.621-2.207-13.788.65-17.029 6.754-11.264 21.215-36.657 68.433-46.38 86.501a39.415 39.415 0 0 0-4.574 15.452l-6.299 75.595a32.06 32.06 0 0 0 6.539 22.212l67.159 87.307a16.035 16.035 0 0 1 2.304 15.405l-20.92 55.786h29.279l15.002-56.331a40.082 40.082 0 0 0-7.01-34.816l-60.399-69.176a32.05 32.05 0 0 1-6.457-23.077z"/><path style="fill:#ffe1a0" d="m96.602 250.126-21.801-49.052a15.498 15.498 0 0 0-14.163-9.204c-10.718 0-18.2 10.618-14.596 20.711l32.684 91.515 37.081-32.261a48.093 48.093 0 0 1-19.205-21.709z"/><path d="M49.517 323.564a7.501 7.501 0 0 0-11.89 9.146l37.738 49.059a8.48 8.48 0 0 1 1.226 8.198l-20.92 55.787a7.5 7.5 0 1 0 14.044 5.266l20.92-55.787c2.875-7.668 1.611-16.12-3.382-22.61l-37.736-49.059z"/><path d="m144.274 280.168-24.607-14.764a40.397 40.397 0 0 1-16.211-18.323l-21.801-49.053a22.981 22.981 0 0 0-9.698-10.668l26.286-84.329c3.443-11.046-2.688-23.01-13.669-26.671l-.306-.102c-10.108-3.368-21.052.985-26.025 10.352-11.152 21.005-36.098 67.394-46.306 86.363a47.267 47.267 0 0 0-5.507 18.58l-6.292 75.5a39.477 39.477 0 0 0 8.068 27.409l9.374 12.186a7.49 7.49 0 0 0 5.95 2.928 7.501 7.501 0 0 0 5.939-12.074l-9.374-12.186a24.508 24.508 0 0 1-5.009-17.017l6.292-75.5a32.35 32.35 0 0 1 3.768-12.718c10.213-18.98 35.175-65.398 46.345-86.437 1.524-2.872 4.902-4.198 8.037-3.155l.306.102c3.284 1.095 5.118 4.673 4.089 7.976l-26.835 86.09a23.024 23.024 0 0 0-15.248 9.463 23.024 23.024 0 0 0-2.859 20.983l32.684 91.515a7.5 7.5 0 0 0 14.126-5.044l-32.686-91.515a7.902 7.902 0 0 1 .995-7.298 7.904 7.904 0 0 1 6.538-3.391 8.004 8.004 0 0 1 7.309 4.75l21.801 49.053c4.667 10.503 12.344 19.18 22.2 25.094l24.607 14.764c22.108 13.265 32.468 39.804 25.193 64.538l-26.089 88.702a7.5 7.5 0 1 0 14.391 4.233l26.089-88.702c9.202-31.287-3.902-64.856-31.865-81.634zm359.523 14.293a39.479 39.479 0 0 0 8.068-27.408l-6.292-75.5a47.251 47.251 0 0 0-5.507-18.579c-10.208-18.97-35.153-65.358-46.305-86.364-4.974-9.367-15.919-13.721-26.022-10.353l-.313.104c-10.979 3.66-17.109 15.624-13.666 26.67l26.286 84.329a22.986 22.986 0 0 0-9.698 10.668l-21.801 49.053a40.397 40.397 0 0 1-16.211 18.323l-24.607 14.764c-27.963 16.778-41.067 50.347-31.866 81.633l26.089 88.702a7.503 7.503 0 0 0 7.192 5.386 7.5 7.5 0 0 0 7.199-9.619l-26.089-88.702c-7.275-24.734 3.085-51.273 25.193-64.538l24.607-14.764c9.856-5.914 17.533-14.591 22.2-25.094l21.801-49.053a8.005 8.005 0 0 1 7.309-4.75 7.903 7.903 0 0 1 6.538 3.391 7.905 7.905 0 0 1 .995 7.298l-18.37 51.436a7.5 7.5 0 1 0 14.126 5.044l18.37-51.436a23.027 23.027 0 0 0-2.859-20.983 23.026 23.026 0 0 0-15.248-9.463l-26.835-86.09c-1.029-3.304.805-6.882 4.085-7.976l.313-.104c3.129-1.044 6.508.283 8.034 3.156 11.17 21.039 36.131 67.457 46.345 86.437a32.346 32.346 0 0 1 3.768 12.718l6.292 75.5a24.513 24.513 0 0 1-5.009 17.017l-67.159 87.307c-4.993 6.491-6.257 14.943-3.382 22.611l20.92 55.787a7.503 7.503 0 0 0 7.023 4.869 7.5 7.5 0 0 0 7.021-10.135l-20.92-55.787a8.48 8.48 0 0 1 1.227-8.198l67.158-87.307z"/><path d="M433.276 311.598a7.503 7.503 0 0 0 7.063-4.979l2.863-8.016a7.501 7.501 0 0 0-14.126-5.046l-2.863 8.016a7.501 7.501 0 0 0 7.063 10.025zM310.344 56.112c-20.142 0-39.542 7.825-54.343 21.705-14.802-13.88-34.201-21.705-54.343-21.705-44.089 0-79.958 35.869-79.958 79.958 0 75.525 124.729 162.516 130.04 166.182a7.494 7.494 0 0 0 8.522 0c5.31-3.667 130.04-90.657 130.04-166.182 0-44.089-35.869-79.958-79.958-79.958zm3.966 181.623c-24.191 23.637-48.678 42.119-58.309 49.126-9.631-7.007-34.117-25.489-58.309-49.126-39.901-38.987-60.992-74.142-60.992-101.666 0-35.818 29.14-64.958 64.958-64.958 18.489 0 36.238 8.174 48.697 22.425a7.5 7.5 0 0 0 11.292 0c12.458-14.251 30.208-22.425 48.697-22.425 35.818 0 64.958 29.14 64.958 64.958 0 27.524-21.091 62.679-60.992 101.666z"/></svg>