<svg height="400pt" viewBox="0 0 400 400" width="400pt" xmlns="http://www.w3.org/2000/svg"><path d="M136 200H24c-8.836 0-16-7.164-16-16V46.625c0-4.242 1.688-8.313 4.688-11.313l22.624-22.624c3-3 7.07-4.688 11.313-4.688h66.75c4.246 0 8.313 1.688 11.313 4.688l22.624 22.624c3 3 4.688 7.07 4.688 11.313V184c0 8.836-7.164 16-16 16zm0 0" fill="#ffc0a7"/><path d="M136 208H24c-13.254 0-24-10.746-24-24V46.633a23.831 23.831 0 0 1 7.031-16.977L29.656 7.031A23.831 23.831 0 0 1 46.633 0h66.734a23.831 23.831 0 0 1 16.977 7.031l22.625 22.625A23.831 23.831 0 0 1 160 46.633V184c0 13.254-10.746 24-24 24zM46.633 16c-2.125 0-4.164.84-5.664 2.344L18.344 40.969A8.012 8.012 0 0 0 16 46.633V184a8 8 0 0 0 8 8h112a8 8 0 0 0 8-8V46.633c0-2.125-.84-4.164-2.344-5.664l-22.625-22.625A7.996 7.996 0 0 0 113.367 16zm0 0" fill="#a5221a"/><path d="M132 352c-33.121-.035-59.965-26.879-60-60v-76a8 8 0 0 1 16 0v76c0 24.3 19.7 44 44 44s44-19.7 44-44V172c0-37.555 30.445-68 68-68s68 30.445 68 68v68a8 8 0 0 1-16 0v-68c0-28.719-23.281-52-52-52s-52 23.281-52 52v120c-.035 33.121-26.879 59.965-60 60zm0 0" fill="#a5221a"/><path d="M288 240h32v48h-32zm0 0" fill="#ffc0a7"/><path d="M320 296h-32a8 8 0 0 1-8-8v-48a8 8 0 0 1 8-8h32a8 8 0 0 1 8 8v48a8 8 0 0 1-8 8zm-24-16h16v-32h-16zm0 0" fill="#a5221a"/><path d="m304 277.129-17.52-17.234c-16.23-15.875-42.171-15.875-58.398 0a40.138 40.138 0 0 0 0 57.44L304 392l75.902-74.664a40.138 40.138 0 0 0 0-57.441c-16.226-15.875-42.168-15.875-58.398 0zm0 0" fill="#dc2d22"/><g fill="#a5221a"><path d="M304 400a8.02 8.02 0 0 1-5.602-2.297l-75.902-74.672a48.133 48.133 0 0 1 0-68.8c19.363-18.868 50.238-18.868 69.602 0L304 265.901l11.902-11.71c19.368-18.868 50.239-18.868 69.602 0a48.126 48.126 0 0 1 0 68.8l-75.902 74.711A8.02 8.02 0 0 1 304 400zm-46.71-144a33.51 33.51 0 0 0-23.587 9.602A32.144 32.144 0 0 0 224 288.617c0 8.664 3.5 16.965 9.703 23.016L304 380.8l70.297-69.145a32.15 32.15 0 0 0 0-46.031c-13.125-12.813-34.074-12.813-47.2 0l-17.495 17.207a8 8 0 0 1-11.204 0l-17.527-17.23A33.508 33.508 0 0 0 257.29 256zm0 0"/><path d="M304 344a8 8 0 0 1-8-8v-32a8 8 0 0 1 16 0v32a8 8 0 0 1-8 8zm0 0"/><path d="M320 328h-32a8 8 0 0 1 0-16h32a8 8 0 0 1 0 16zm0 0"/></g><path d="M112 56H48c-8.836 0-16 7.164-16 16v80c0 8.836 7.164 16 16 16s16 7.164 16 16v24a8 8 0 0 0 8 8h16a8 8 0 0 0 8-8v-24c0-8.836 7.164-16 16-16s16-7.164 16-16V72c0-8.836-7.164-16-16-16zm0 0" fill="#dc2d22"/><path d="M88 224H72c-8.836 0-16-7.164-16-16v-24a8 8 0 0 0-8-8c-13.254 0-24-10.746-24-24V72c0-13.254 10.746-24 24-24h64c13.254 0 24 10.746 24 24v80c0 13.254-10.746 24-24 24a8 8 0 0 0-8 8v24c0 8.836-7.164 16-16 16zM48 64a8 8 0 0 0-8 8v80a8 8 0 0 0 8 8c13.254 0 24 10.746 24 24v24h16v-24c0-13.254 10.746-24 24-24a8 8 0 0 0 8-8V72a8 8 0 0 0-8-8zm48-24H64a8 8 0 0 1 0-16h32a8 8 0 0 1 0 16zm0 0" fill="#a5221a"/><path d="M96 120c0 8.836-7.164 16-16 16s-16-7.164-16-16c0-16 16-32 16-32s16 16 16 32zm0 0" fill="#fff"/><path d="M80 144c-13.254 0-24-10.746-24-24 0-18.777 16.465-35.785 18.344-37.656a8.004 8.004 0 0 1 11.312 0C87.536 84.214 104 101.223 104 120c0 13.254-10.746 24-24 24zm0-43.512A37.145 37.145 0 0 0 72 120a8 8 0 0 0 16 0 37.145 37.145 0 0 0-8-19.512zm0 0" fill="#a5221a"/></svg>