<svg xmlns="http://www.w3.org/2000/svg" viewBox="0 0 512 512" style="enable-background:new 0 0 512 512" xml:space="preserve"><path style="fill:#f9f0b5" d="M255.988 37.59 70.285 150.626l371.434.016z"/><path style="fill:#559156" d="M0 159.654h512v257.092H0z"/><path style="fill:#58ab5b" d="M512 93.381v66.279L256 315.476 0 159.66V93.381z"/><path style="fill:#84c688" d="M477.735 180.511 256 349.235 34.265 180.511c29.246-.259 52.877-24.058 52.877-53.372h337.717c0 29.314 23.631 53.113 52.876 53.372z"/><path style="fill:#58ab5b" d="M478.242 180.522V329.61c-29.482 0-53.383 23.901-53.383 53.383H87.141c0-29.482-23.901-53.383-53.383-53.383V180.522c.169 0 .338 0 .506-.011L256 315.476l221.735-134.965c.169.011.338.011.507.011z"/><path style="fill:#58ab5b" d="M350.163 255.072c0 1.046-.022 2.093-.056 3.128L256 349.235 161.893 258.2a95.425 95.425 0 0 1-.056-3.128c0-52.01 42.153-94.174 94.163-94.174s94.163 42.163 94.163 94.174z"/><path style="fill:#559156" d="m256 315.476 94.107-57.276c-1.643 50.547-43.143 91.035-94.107 91.035s-92.464-40.487-94.107-91.035L256 315.476z"/><path style="fill:#84c688" d="M307.991 237.801c0-15.323-12.422-27.744-27.744-27.744-10.431 0-19.51 5.76-24.247 14.271-4.737-8.51-13.816-14.271-24.247-14.271-15.323 0-27.744 12.422-27.744 27.744a27.626 27.626 0 0 0 5.607 16.724L256 315.833l46.384-61.308a27.622 27.622 0 0 0 5.607-16.724z"/><path style="fill:#ffcc3d" d="M230.816 333.908 256 394.246 0 474.41V193.418zM512 193.418V474.41l-256-80.164 25.184-60.338z"/><path style="fill:#ffbb02" d="M512 474.41H0l230.816-140.502L256 349.235l25.184-15.327z"/></svg>