<svg xmlns="http://www.w3.org/2000/svg" viewBox="0 0 512 512" style="enable-background:new 0 0 512 512" xml:space="preserve"><path style="fill:#a8aff1" d="M486.61 202.281c-.616 0-1.246-.044-1.877-.117-8.228-1.026-14.064-8.535-13.037-16.762l8.858-70.805c2.889-23.157-4.913-45.903-21.412-62.416-16.513-16.498-39.377-24.257-62.416-21.412l-70.893 8.858c-8.286.953-15.736-4.811-16.762-13.037s4.811-15.736 13.037-16.762L393.001.97c32.411-4.077 64.264 6.878 87.376 29.976 23.098 23.098 34.023 54.952 29.976 87.376l-8.858 70.805c-.953 7.595-7.42 13.154-14.885 13.154zM406.273 510.46c-4.4 0-8.828-.278-13.272-.836l-70.13-8.77c-8.228-1.026-14.064-8.535-13.037-16.762 1.027-8.228 8.477-14.079 16.762-13.037l70.13 8.77c23.069 2.918 45.903-4.899 62.416-21.412 16.498-16.513 24.3-39.26 21.412-62.416l-8.77-70.174c-1.026-8.228 4.811-15.736 13.037-16.762 8.184-1.041 15.721 4.811 16.762 13.037l8.77 70.174c4.048 32.426-6.878 64.279-29.976 87.376-19.944 19.931-46.386 30.812-74.104 30.812z"/><path style="fill:#c5c9f7" d="M105.602 512c-27.6 0-53.955-10.779-73.885-30.577-23.273-23.128-34.272-55.054-30.21-87.597l9.108-72.844c1.026-8.213 8.521-13.932 16.762-13.037 8.228 1.026 14.064 8.535 13.037 16.762l-9.108 72.844c-2.903 23.245 4.957 46.049 21.573 62.563 16.66 16.542 39.553 24.242 62.783 21.192 25.445-3.344 51.08-6.849 72.418-9.782 8.345-1.364 15.794 4.605 16.924 12.818 1.144 8.213-4.605 15.794-12.818 16.924-21.397 2.962-47.091 6.467-72.608 9.811-4.678.616-9.341.923-13.976.923zM25.396 201.943c-7.465 0-13.932-5.558-14.885-13.155L1.697 118.32c-4.048-32.426 6.878-64.279 29.976-87.376C54.786 7.861 86.683-3.109 119.05.968l70.468 8.814c8.228 1.026 14.064 8.535 13.037 16.762s-8.535 14.035-16.762 13.037l-70.468-8.814c-23.04-2.816-45.903 4.913-62.416 21.412-16.498 16.513-24.3 39.26-21.412 62.416l8.814 70.468c1.026 8.228-4.811 15.736-13.037 16.762-.63.074-1.261.118-1.878.118zM383.348 34.235 326.534 50.66l-37.632 75.265 27.01 43.182a105.777 105.777 0 0 1 26.303 26.303l43.182 27.01 75.265-37.632 16.425-56.814a256.275 256.275 0 0 0-93.739-93.739zm77.314 291.569-75.263-37.637-43.18 27.012a105.91 105.91 0 0 1-26.303 26.303l-27.008 43.184 37.628 75.265 56.814 16.425a256.21 256.21 0 0 0 93.738-93.738l-16.426-56.814z"/><path style="fill:#e1e4fb" d="M196.137 341.483a105.959 105.959 0 0 1-26.299-26.298l-43.184-27.01-75.261 37.635-16.426 56.814a256.202 256.202 0 0 0 93.731 93.731l56.814-16.425 37.636-75.263-27.011-43.184zM185.523 50.658l-56.814-16.427a256.223 256.223 0 0 0-93.747 93.748l16.425 56.814 75.266 37.63 43.18-27.01a105.858 105.858 0 0 1 26.31-26.308l27.012-43.18-37.632-75.267z"/><path style="fill:#fd003a" d="m383.374 34.24-67.578 134.856c-8.11-5.707-17.12-9.912-27.03-13.215-10.213-3.304-21.326-5.707-32.739-5.707-11.413 0-22.526 2.404-32.739 5.707-9.91 3.304-18.92 7.509-27.03 13.215L128.678 34.24c8.709-5.107 17.421-9.611 26.731-13.516C186.345 7.509 220.284 0 256.026 0s69.681 7.509 100.616 20.724c9.31 3.905 18.021 8.409 26.732 13.516z"/><path style="fill:#e50027" d="m383.374 34.24-67.578 134.856c-8.11-5.707-17.12-9.912-27.03-13.215-10.213-3.304-21.326-5.707-32.739-5.707V0c35.741 0 69.681 7.509 100.616 20.724 9.309 3.905 18.02 8.409 26.731 13.516z"/><path style="fill:#fd003a" d="M383.374 476.353c-8.709 5.107-17.421 9.611-26.731 13.516-30.935 13.215-64.874 20.724-100.616 20.724s-69.681-7.509-100.616-20.724c-9.311-3.905-18.022-8.409-26.731-13.516l67.578-134.856c8.11 5.707 17.12 9.913 27.03 13.215 10.213 3.304 21.326 5.707 32.739 5.707 11.413 0 22.526-2.404 32.739-5.707 9.91-3.304 18.92-7.509 27.03-13.215l67.578 134.856z"/><path style="fill:#e50027" d="M383.374 476.353c-8.709 5.107-17.421 9.611-26.731 13.516-30.935 13.215-64.874 20.724-100.616 20.724V360.418c11.413 0 22.526-2.404 32.739-5.707 9.91-3.304 18.92-7.509 27.03-13.215l67.578 134.857z"/><path style="fill:#fd003a" d="M156.69 288.174c-3.459-10.405-5.786-21.327-5.786-32.878 0-11.549 2.328-22.469 5.786-32.874 3.21-9.657 7.434-18.818 13.145-27.01L34.962 127.978c-4.994 8.653-9.639 17.523-13.61 26.779C8.113 185.618.73 219.588.73 255.296c0 35.712 7.386 69.685 20.629 100.549 3.971 9.256 8.614 18.126 13.61 26.779l134.87-67.439c-5.713-8.195-9.94-17.351-13.149-27.011z"/><path style="fill:#e50027" d="M490.697 154.754c-3.971-9.254-8.616-18.126-13.61-26.779L342.215 195.41c5.713 8.193 9.936 17.351 13.147 27.01 3.457 10.405 5.786 21.326 5.786 32.876 0 11.549-2.327 22.467-5.784 32.871-3.21 9.659-7.436 18.818-13.145 27.012l134.869 67.439c4.996-8.653 9.639-17.523 13.61-26.779 13.239-30.863 20.624-64.833 20.624-100.544s-7.385-69.678-20.625-100.541z"/></svg>