<svg height="490pt" viewBox="0 0 490.676 490" width="490pt" xmlns="http://www.w3.org/2000/svg"><path d="M461.652 71.672a60.728 60.728 0 0 1 0 86.933l-88.32 87.04-88.32-87.04a60.738 60.738 0 0 1 0-86.933c24.55-24 63.773-24 88.32 0 24.55-24 63.773-24 88.32 0zM216.32 18.34a60.728 60.728 0 0 1 0 86.934L128 192.311l-88.32-87.039a60.728 60.728 0 0 1 0-86.933c24.547-24 63.773-24 88.32 0 24.547-24 63.773-24 88.32 0zm0 0" fill="#f34f63"/><path d="M0 320.313h64c11.766.035 21.297 9.566 21.332 21.332v128c-.035 11.77-9.566 21.3-21.332 21.335H0zm0 0" fill="#5ba1f0"/><path d="M330.668 384.313h135.039c12.18-.004 22.586 8.785 24.621 20.792 2.031 12.012-4.902 23.735-16.406 27.739l-196.59 58.136-192-21.335V362.98l32-32h96c11.77.036 21.3 9.563 21.336 21.332v10.668h74.664c11.746.086 21.246 9.586 21.336 21.332zm0 0" fill="#f2c2b8"/><path d="M32 352.313h21.332v21.332H32zm0 0" fill="#5b90f0"/><path d="M138.668 309.645h-21.336a38.036 38.036 0 0 1 13.793-28.875c5.227-5.227 7.543-7.786 7.543-13.79 0-6.007-2.316-8.535-7.543-13.793a38.036 38.036 0 0 1-13.793-28.875h21.336c0 6.004 2.312 8.532 7.539 13.793a37.12 37.12 0 0 1 0 57.746c-5.227 5.262-7.539 7.801-7.539 13.794zm0 0" fill="#eef4fd"/><path d="M202.668 266.98h-21.336a38.024 38.024 0 0 1 13.793-28.875c5.227-5.226 7.543-7.789 7.543-13.792s-2.316-8.536-7.543-13.793a38.03 38.03 0 0 1-13.793-28.875h21.336c0 6.007 2.312 8.535 7.539 13.793a37.121 37.121 0 0 1 0 57.75c-5.227 5.257-7.539 7.796-7.539 13.792zM384 352.313h-21.332a38.033 38.033 0 0 1 13.789-28.875c5.227-5.227 7.543-7.786 7.543-13.793 0-6.004-2.316-8.532-7.543-13.793a38.018 38.018 0 0 1-13.789-28.872H384c0 6.004 2.316 8.532 7.543 13.79a37.121 37.121 0 0 1 0 57.75c-5.227 5.257-7.543 7.796-7.543 13.793zm0 0" fill="#bac7d5"/><path d="M458.668 309.645h-21.336a38.036 38.036 0 0 1 13.793-28.875c5.227-5.227 7.543-7.786 7.543-13.79 0-6.007-2.316-8.535-7.543-13.793a38.036 38.036 0 0 1-13.793-28.875h21.336c0 6.004 2.312 8.532 7.539 13.793a37.12 37.12 0 0 1 0 57.746c-5.227 5.262-7.539 7.801-7.539 13.794zm-149.336 0H288a38.023 38.023 0 0 1 13.793-28.875c5.227-5.227 7.539-7.786 7.539-13.79 0-6.007-2.312-8.535-7.539-13.793A38.023 38.023 0 0 1 288 224.312h21.332c0 6.004 2.316 8.532 7.543 13.793a37.12 37.12 0 0 1 0 57.746c-5.227 5.262-7.543 7.801-7.543 13.794zm-128-21.332h21.336v21.332h-21.336zm0 0" fill="#eef4fd"/><path d="M437.332 330.98h21.336v21.333h-21.336zM64 266.98H42.668a38.02 38.02 0 0 1 13.789-28.875c5.227-5.261 7.543-7.789 7.543-13.792s-2.316-8.536-7.543-13.793a38.026 38.026 0 0 1-13.789-28.875H64c0 6.007 2.316 8.535 7.543 13.793a37.121 37.121 0 0 1 0 57.75C66.316 258.445 64 260.984 64 266.98zm0 0" fill="#bac7d5"/></svg>