<svg xmlns="http://www.w3.org/2000/svg" viewBox="0 0 512 512" style="enable-background:new 0 0 512 512" xml:space="preserve"><circle style="fill:#005fd2" cx="256" cy="256" r="256"/><path style="fill:#003d8d" d="M512 256c0-11.42-.759-22.661-2.208-33.686L390.075 102.212c-3.457-3.611-7.403-6.504-11.731-8.514-37.439-17.382-64.397 16.306-68.278 21.525l-8.34-8.334c-11.084-10.846-33.104-26.1-60.906-13.192-30.992 14.389-42.493 73.877 6.213 119.85l75.667 75.629-4.811 2.252-18.354-17.436c-2.477-2.716-5.628-4.86-9.125-6.031 0 0-60.672-20.166-65.033-21.626-6.81-2.281-15.065-6.038-23.406-2.133l-67.02 31.37-12.352-14.28-53.804 25.184 58.689 125.386 98.36 98.36A258.367 258.367 0 0 0 256 512c141.385 0 256-114.615 256-256z"/><path style="fill:#ffdba9" d="m152.888 390.536 67.615-31.648c13.385-6.265 15.919-7.631 40.479-.03 19.579 6.059 40.3-2.995 58.147-11.349l97.016-45.41c14.42-6.75 21.24-22.625 15.233-35.46-6.007-12.834-22.567-17.767-36.987-11.017l-90.509 42.364c-1.727.808-3.674.948-5.383.386l-88.696-29.165c-1.709-.562-3.656-.422-5.383.386l-88.705 41.52 37.173 79.423z"/><path style="fill:#ffc473" d="M290.409 267.962s-60.672-20.166-65.033-21.626c-6.81-2.281-15.065-6.037-23.406-2.133l-96.446 45.143 15.868 33.902 87.873-41.131 45.124 15.111 21.759 7.271c10.227 3.425 23.921-1.285 27.843-11.332 3.923-10.047-3.354-21.78-13.582-25.205z"/><path style="fill:#00efd1" d="m181.288 386.679-53.804 25.184-58.69-125.386.001-.001 53.804-25.183z"/><path transform="rotate(-25.082 136.831 361.748)" style="fill:#00ad95" d="M107.133 320.324h59.41v82.839h-59.41z"/><path style="fill:#ff73af" d="M378.344 93.698c-40.518-18.812-68.762 22.194-68.762 22.194s-28.245-41.006-68.762-22.194c-40.448 18.78-47.729 114.386 68.762 156.498 116.49-42.112 109.21-137.718 68.762-156.498z"/><path style="fill:#ff127f" d="M309.577 250.196v-134.3s28.25-41.01 68.77-22.2c40.44 18.781 47.73 114.391-68.77 156.5z"/></svg>