<svg xmlns="http://www.w3.org/2000/svg" viewBox="0 0 512 512" style="enable-background:new 0 0 512 512" xml:space="preserve"><path style="fill:#babac0" d="M295.745 195v-.901c-1.8 18.3-4.799 36.601-9.598 55.201l-15.3 63.1c-2.1 8.099 2.699 16.199 10.8 17.999 1.199.601 2.401.601 3.6.601 6.599 0 12.9-4.501 14.399-11.4l15.601-63.1c5.099-19.501 8.401-39 10.201-58.2l-29.703-3.3z"/><path style="fill:#d3d3d8" d="m239.645 312.4-15.3-63.1c-4.799-18.3-7.798-36.301-9.598-54.3l-29.702 3.3c1.8 19.2 5.101 38.699 10.201 58.2l15.601 63.1c1.8 8.101 9.899 12.9 17.999 10.8 8.1-1.801 12.899-9.901 10.799-18z"/><path style="fill:#babac0" d="M404.344 185.099c-3.3 20.7-11.398 41.4-25.199 59.399L333.245 307c-5.099 6.599-3.6 15.899 3.001 20.999 6.599 5.101 15.899 3.6 21-2.999l45.899-62.5c16.5-22.2 26.7-47.401 30.601-72.9l-29.402-4.501z"/><path style="fill:#d3d3d8" d="m177.246 307-43.5-59.2c-15.3-20.7-24.3-44.101-26.7-67.8l-29.7 4.799c3.3 28.5 14.099 57.7 32.401 82l43.499 58.2c3.001 3.9 7.5 6 12.001 6 2.999 0 6.301-.901 9-3.001 6.599-5.099 8.099-14.399 2.999-20.998z"/><path style="fill:#ff641a" d="M131.045 44.7c-39 32.401-57.9 82.2-54.3 132.001 0 .599-.3.899 0 1.5 0 2.1.3 4.199.601 6.299v.3c2.1 4.801 6 8.701 11.4 9.6 8.399 1.5 16.199-3.9 17.699-12.001.3-.899.3-1.5.601-2.399 5.4-24.3 24.6-31.5 39.6-29.7 16.5 1.199 33.3 12.599 37.2 34.799L250.446.3c-43.5.899-85.801 16.5-119.401 44.4z"/><path style="fill:#ff4b00" d="M382.745 47.399c-34.2-29.4-77.701-46.2-122.701-47.099l66.601 184.499c4.2-22.5 21.599-33.6 38.101-34.799 15.899-.901 35.7 7.5 39.598 35.099.3.3.3.601.3.901 1.201 8.099 8.401 13.799 16.8 12.9 5.7-.601 10.201-4.501 12.301-9.3.599-1.8.899-3.9.899-6 5.701-50.1-11.998-101.701-51.899-136.201z"/><path style="fill:#ff9100" d="M326.045 133.5c-3.6-44.702-21.899-127.202-66-133.2-1.2-.3-3-.3-4.8-.3-1.8 0-3.6 0-4.799.3-43.801 5.999-62.401 88.499-66 133.2-1.5 16.8-1.5 33.898-.601 51.599.3 4.2.901 8.699 1.199 13.2 1.501 6.899 7.5 11.7 14.702 11.7 8.399 0 15-6.601 15-15v-.901c.298-30.598 20.7-44.098 40.499-44.098s40.201 13.5 40.499 44.099V195c0 8.399 6.601 15 15 15 7.202 0 13.2-4.801 14.702-11.7.599-4.501.899-9 1.199-13.5.899-17.401.899-34.8-.6-51.3z"/><path style="fill:#ff7816" d="M255.245 150V0c1.8 0 3.6 0 4.799.3 44.101 5.999 62.401 88.499 66 133.2 1.5 16.5 1.5 33.898.601 51.299-.3 4.501-.601 9-1.199 13.5-1.501 6.899-7.5 11.7-14.702 11.7-8.399 0-15-6.601-15-15v-.901C295.446 163.5 275.044 150 255.245 150z"/><path style="fill:#ff641a" d="M345.245 301h-180c-8.401 0-15 6.599-15 15v181c0 8.399 6.599 15 15 15h180c8.401 0 15-6.601 15-15V316c0-8.401-6.599-15-15-15z"/><path style="fill:#ff4b00" d="M360.245 316v181c0 8.399-6.599 15-15 15h-90V301h90c8.401 0 15 6.599 15 15z"/><path style="fill:#ececf1" d="M300.245 406c0 8.399-6.599 15-15 15h-15v15c0 8.399-6.599 15-15 15s-15-6.601-15-15v-15h-15c-8.401 0-15-6.601-15-15 0-8.401 6.599-15 15-15h15v-15c0-8.401 6.599-15 15-15s15 6.599 15 15v15h15c8.401 0 15 6.599 15 15z"/><path style="fill:#e2e2e7" d="M300.245 406c0 8.399-6.599 15-15 15h-15v15c0 8.399-6.599 15-15 15v-90c8.401 0 15 6.599 15 15v15h15c8.401 0 15 6.599 15 15z"/></svg>