<svg xmlns="http://www.w3.org/2000/svg" viewBox="0 0 512.001 512.001" style="enable-background:new 0 0 512.001 512.001" xml:space="preserve"><path style="fill:#ffc16b" d="M213.904 440.181H90.402v-33.599l-63.787-59.835C9.701 330.882 0 308.48 0 285.289V171.488c0-24.887 20.247-45.134 45.134-45.134 24.888 0 45.135 20.247 45.135 45.134v62.193a45.165 45.165 0 0 1 15.134-2.588c12.056 0 23.391 4.694 31.915 13.22l51.905 51.906c15.916 15.915 24.682 37.076 24.682 59.585l-.001 84.377z"/><path style="fill:#7bcefc" d="M233.405 485.887H45.201v-75.706h188.204v75.706z"/><path style="fill:#ffd69d" d="M120.402 410.181h63.502v-54.377c0-14.495-5.645-28.123-15.895-38.371l-51.905-51.907a15.037 15.037 0 0 0-10.702-4.433 15.028 15.028 0 0 0-10.7 4.433 15.032 15.032 0 0 0-4.434 10.607v.094c0 4.043 1.574 7.844 4.433 10.702l43.2 43.2-21.213 21.213-43.2-43.2c-8.525-8.524-13.22-19.859-13.22-31.915V171.488c0-8.345-6.789-15.134-15.135-15.134-8.345 0-15.134 6.789-15.134 15.134v113.801c0 14.935 6.247 29.36 17.14 39.578l73.263 68.724v16.59z"/><circle style="fill:#fff" cx="78.49" cy="448.031" r="14.749"/><path style="fill:#ffc16b" d="M298.096 355.804c0-22.509 8.766-43.67 24.682-59.585l51.905-51.906c8.524-8.525 19.859-13.22 31.915-13.22 5.237 0 10.34.886 15.134 2.588v-62.193c0-24.887 20.247-45.134 45.135-45.134 24.887 0 45.134 20.247 45.134 45.134v113.801c0 23.191-9.701 45.593-26.615 61.459l-63.787 59.835v33.599H298.096v-84.378z"/><path style="fill:#7bcefc" d="M278.595 410.181h188.204v75.706H278.595v-75.706z"/><path style="fill:#ffd69d" d="m391.598 393.591 73.263-68.724c10.893-10.218 17.14-24.644 17.14-39.578V171.488c0-8.345-6.789-15.134-15.134-15.134-8.346 0-15.135 6.789-15.135 15.134v104.739c0 12.056-4.694 23.391-13.22 31.915l-43.2 43.2-21.213-21.213 43.2-43.2a15.037 15.037 0 0 0 4.433-10.702v-.094a15.024 15.024 0 0 0-4.434-10.607 15.032 15.032 0 0 0-10.7-4.433 15.033 15.033 0 0 0-10.702 4.433l-51.905 51.907c-10.25 10.248-15.895 23.876-15.895 38.371v54.377h63.502v-16.59z"/><circle style="fill:#fff" cx="433.51" cy="448.031" r="14.749"/><path style="fill:#ff7f4b" d="M256 217.23s111.13-69.01 111.13-130.593c0-33.425-27.097-60.522-60.522-60.522-21.171 0-39.793 10.879-50.609 27.344-10.816-16.465-29.437-27.344-50.609-27.344-33.425 0-60.522 27.096-60.522 60.522C144.87 148.22 256 217.23 256 217.23z"/><path style="fill:#fd5219" d="M256 217.23s111.13-69.01 111.13-130.593c0-33.425-27.097-60.522-60.522-60.522-21.171 0-39.793 10.879-50.609 27.344L256 217.23z"/></svg>