<svg xmlns="http://www.w3.org/2000/svg" viewBox="0 0 512.001 512.001" style="enable-background:new 0 0 512.001 512.001" xml:space="preserve"><path style="fill:#cff09e" d="M14.222 73.306v80.082c0 18.18 14.737 32.917 32.917 32.917h271.969c1.537-10.752 10.758-19.026 21.936-19.026 11.177 0 20.399 8.274 21.936 19.026h101.88c18.18 0 32.917-14.737 32.917-32.917V73.306c0-18.18-14.737-32.917-32.917-32.917H47.14c-18.181 0-32.918 14.738-32.918 32.917z"/><path style="fill:#507c5c" d="M464.86 200.528H362.98a14.223 14.223 0 0 1-14.079-12.208c-.556-3.887-3.934-6.818-7.856-6.818s-7.302 2.931-7.856 6.818a14.221 14.221 0 0 1-14.079 12.208H47.14c-25.994 0-47.14-21.147-47.14-47.14V73.306c0-25.993 21.146-47.14 47.14-47.14h417.722c25.993 0 47.14 21.147 47.14 47.14v80.082c-.002 25.993-21.148 47.14-47.142 47.14zm-91.871-28.444h91.873c10.308 0 18.695-8.387 18.695-18.695V73.306c0-10.308-8.385-18.695-18.695-18.695H47.14c-10.31 0-18.695 8.387-18.695 18.695v80.082c0 10.308 8.385 18.695 18.695 18.695H309.1c6.242-11.392 18.382-19.026 31.945-19.026 13.562 0 25.702 7.635 31.944 19.027z"/><path style="fill:#507c5c" d="M104.39 73.926c14.939 0 26.63 6.928 26.63 25.546v28.035c0 18.618-11.691 25.546-26.63 25.546H85.231c-4.437 0-7.36-2.381-7.36-5.087V79.015c0-2.705 2.923-5.087 7.36-5.087h19.159v-.002zm-9.633 14.723v49.685h9.633c6.063 0 9.744-3.465 9.744-10.825V99.474c0-7.361-3.681-10.825-9.744-10.825h-9.633zm46.117 39.51V99.474c0-18.618 11.583-25.546 26.52-25.546s26.628 6.928 26.628 25.546v28.685c0 18.618-11.691 25.546-26.628 25.546-14.939 0-26.52-6.928-26.52-25.546zm36.262-28.685c0-7.468-3.681-10.825-9.742-10.825-6.063 0-9.634 3.356-9.634 10.825v28.685c0 7.468 3.573 10.825 9.634 10.825 6.062 0 9.742-3.355 9.742-10.825V99.474zm65.168 49.035-20.567-37.453v36.803c0 3.465-4.223 5.195-8.444 5.195-4.223 0-8.444-1.732-8.444-5.195V79.123c0-3.573 4.221-5.195 8.444-5.195 6.061 0 8.334.542 12.449 8.444l17.535 33.448V79.015c0-3.571 4.223-5.087 8.445-5.087 4.221 0 8.444 1.516 8.444 5.087v68.846c0 3.465-4.223 5.195-8.444 5.195-3.897 0-7.361-.758-9.418-4.547zm24.144-2.381c0-.326.108-.758.216-1.19l20.133-66.03c1.19-3.789 6.062-5.629 11.042-5.629 4.979 0 9.85 1.84 11.041 5.629l20.242 66.03c.108.434.215.866.215 1.19 0 4.005-6.17 6.928-10.823 6.928-2.706 0-4.873-.866-5.521-3.139l-3.681-13.531h-22.841l-3.681 13.531c-.649 2.273-2.815 3.139-5.52 3.139-4.653 0-10.822-2.923-10.822-6.928zm39.293-22.732-7.902-29.009-7.903 29.009h15.805zm69.933-49.47c3.571 0 5.087 3.897 5.087 7.47 0 4.113-1.84 7.686-5.087 7.686h-14.939v58.778c0 3.465-4.221 5.195-8.444 5.195s-8.444-1.732-8.444-5.195V89.082H328.91c-3.248 0-5.089-3.573-5.089-7.686 0-3.573 1.516-7.47 5.089-7.47h46.764zm28.687 33.016h16.236c3.248 0 5.089 3.14 5.089 6.603 0 2.923-1.516 6.386-5.089 6.386h-16.236v18.402h29.009c3.247 0 5.087 3.465 5.087 7.468 0 3.465-1.515 7.253-5.087 7.253h-38.537c-3.679 0-7.36-1.732-7.36-5.195V79.123c0-3.465 3.681-5.195 7.36-5.195h38.537c3.573 0 5.087 3.789 5.087 7.253 0 4.005-1.84 7.468-5.087 7.468h-29.009v18.293zm47.617 229.868c-7.854 0-14.222-6.367-14.222-14.222V300.41c0-4.392-3.573-7.964-7.964-7.964s-7.966 3.573-7.966 7.964v22.178c0 7.855-6.369 14.222-14.222 14.222s-14.222-6.367-14.222-14.222V300.41c0-20.076 16.333-36.409 36.41-36.409 20.075 0 36.409 16.333 36.409 36.409v22.178c-.001 7.855-6.37 14.222-14.223 14.222zm-88.747 0c-7.854 0-14.222-6.367-14.222-14.222V189.465c0-4.392-3.574-7.964-7.966-7.964s-7.964 3.573-7.964 7.964v133.123c0 7.855-6.369 14.222-14.222 14.222s-14.222-6.367-14.222-14.222V189.465c0-20.076 16.333-36.409 36.409-36.409s36.41 16.333 36.41 36.409v133.123c0 7.855-6.368 14.222-14.223 14.222z"/><path style="fill:#507c5c" d="M407.605 336.81c-7.854 0-14.222-6.367-14.222-14.222V275.66c0-4.392-3.573-7.964-7.964-7.964s-7.964 3.573-7.964 7.964v46.928c0 7.855-6.369 14.222-14.222 14.222s-14.222-6.367-14.222-14.222V275.66c0-20.076 16.333-36.409 36.409-36.409s36.409 16.333 36.409 36.409v46.928c-.002 7.855-6.371 14.222-14.224 14.222zm-55.45 149.025c-4.655 0-9.215-2.281-11.941-6.475l-25.311-38.96c-.279-.43-.535-.873-.765-1.33-.808-1.6-.823-1.63-4.848-3.261-3.398-1.378-8.051-3.265-13.099-7.051-22.498-16.878-35.93-43.74-35.93-71.863V272.67c0-20.076 16.333-36.409 36.409-36.409s36.41 16.333 36.41 36.409v39.937c0 7.855-6.369 14.222-14.222 14.222s-14.222-6.367-14.222-14.222V272.67c0-4.392-3.574-7.964-7.966-7.964s-7.964 3.573-7.964 7.964v84.225c0 19.217 9.179 37.575 24.553 49.108 2.092 1.569 4.133 2.398 6.72 3.445 5.41 2.193 13.522 5.483 19.149 16.027l24.94 38.39c4.279 6.586 2.408 15.396-4.178 19.674a14.165 14.165 0 0 1-7.735 2.296zm144.196-.002c-7.854 0-14.222-6.367-14.222-14.222V322.599c0-4.392-3.573-7.964-7.964-7.964s-7.966 3.573-7.966 7.964c0 7.855-6.369 14.222-14.222 14.222s-14.222-6.367-14.222-14.222v-11.106c0-6.211 3.982-11.493 9.532-13.43 6.663-7.292 16.246-11.873 26.877-11.873 20.075 0 36.409 16.333 36.409 36.409V471.61c.001 7.856-6.367 14.223-14.222 14.223z"/></svg>