<svg xmlns="http://www.w3.org/2000/svg" viewBox="0 0 512.001 512.001" style="enable-background:new 0 0 512.001 512.001" xml:space="preserve"><path style="fill:#d8d8e4" d="M256.003 163.008h-.006L64.001 256.006l191.996 92.998h.006l191.995-92.998z"/><path style="fill:#ffc66c" d="M447.998 339.004v69.998L256.003 502h-.006L64.001 409.002v-69.998"/><path style="fill:#ffb954" d="M447.998 339.004H256.003V502l191.995-92.998z"/><path style="fill:#fea02c" d="m501.991 309.999-189.489 95.503-56.499-56.498 191.995-92.998z"/><path style="fill:#ffb954" d="m10.009 309.999 189.489 95.503 56.499-56.498-191.996-92.998z"/><path style="fill:#ff5d5d" d="M300.213 125.359c-17.414 0-33.117 7.503-44.21 19.527-11.093-12.024-26.796-19.527-44.21-19.527-33.611 0-60.858 27.947-60.858 62.422 0 48.29 105.068 114.801 105.068 114.801s105.068-66.51 105.068-114.801c-.001-34.476-27.247-62.422-60.858-62.422z"/><path d="m509.062 302.928-53.993-53.993a9.973 9.973 0 0 0-2.716-1.924.018.018 0 0 1 .004-.005l-84.795-41.072c2.335-6.347 3.508-12.403 3.508-18.154 0-39.933-31.786-72.421-70.857-72.421-16.086 0-31.732 5.681-44.21 15.838-12.478-10.157-28.124-15.838-44.21-15.838-39.071 0-70.857 32.488-70.857 72.421 0 5.751 1.172 11.806 3.507 18.152l-84.8 41.075.002.005a9.98 9.98 0 0 0-2.714 1.924L2.938 302.928a10.002 10.002 0 0 0 2.57 16.001l48.494 24.441v65.632a10 10 0 0 0 5.641 9l61.384 29.732a10.002 10.002 0 0 0 13.36-4.641c2.407-4.971.33-10.951-4.641-13.359l-55.743-27v-49.286l120.996 60.983a9.999 9.999 0 0 0 11.572-1.859l39.434-39.434v112.91l-51.149-24.775c-4.968-2.403-10.95-.329-13.359 4.641-2.407 4.971-.33 10.951 4.641 13.359l65.502 31.728a10.002 10.002 0 0 0 8.724 0l191.996-92.998a10.002 10.002 0 0 0 5.641-9v-65.632l48.494-24.441a10 10 0 0 0 2.567-16.002zM211.793 135.359c14.068 0 27.158 5.792 36.86 16.308a10 10 0 0 0 14.7 0c9.702-10.517 22.792-16.308 36.86-16.308 28.043 0 50.858 23.516 50.858 52.422 0 16.478-17.365 40.553-48.897 67.791-18.514 15.993-37.258 29.062-46.172 35.043-8.878-5.954-27.509-18.942-46.001-34.896-31.641-27.301-49.066-51.429-49.066-67.938 0-28.907 22.815-52.422 50.858-52.422zm-14.252 257.96L26.857 307.293l39.187-39.187 172.941 83.769-41.444 41.444zm240.458 9.417-171.996 83.31v-112.9l39.428 39.428a9.999 9.999 0 0 0 11.572 1.859l120.996-60.983v49.286zm-123.54-9.417-41.443-41.443 52.247-25.307c4.971-2.408 7.048-8.389 4.641-13.359s-8.39-7.044-13.359-4.641l-60.544 29.325-169.059-81.888 66.612-32.265c9.333 14.492 23.814 30.234 43.384 47.119 26.52 22.884 52.62 39.475 53.718 40.17a9.99 9.99 0 0 0 5.349 1.551 9.99 9.99 0 0 0 5.349-1.551c1.098-.695 27.196-17.286 53.718-40.17 19.569-16.884 34.05-32.626 43.382-47.117l66.607 32.263-38.265 18.535c-4.971 2.408-7.048 8.389-4.641 13.359 2.409 4.972 8.392 7.047 13.359 4.641l50.444-24.434 39.187 39.187-170.686 86.025z"/><path d="M355.491 290.815a10.07 10.07 0 0 0-7.07 2.931 10.072 10.072 0 0 0-2.93 7.069c0 2.63 1.069 5.21 2.93 7.07a10.076 10.076 0 0 0 7.07 2.93c2.63 0 5.21-1.069 7.069-2.93a10.077 10.077 0 0 0 2.931-7.07c0-2.63-1.07-5.21-2.931-7.069a10.07 10.07 0 0 0-7.069-2.931zM156.965 444.032c-2.63 0-5.21 1.069-7.07 2.93a10.076 10.076 0 0 0-2.93 7.07c0 2.63 1.07 5.21 2.93 7.069a10.077 10.077 0 0 0 7.07 2.931c2.64 0 5.21-1.07 7.07-2.931a10.033 10.033 0 0 0 2.93-7.069c0-2.631-1.061-5.211-2.93-7.07a10.076 10.076 0 0 0-7.07-2.93zm99.038-378.718c5.522 0 10-4.477 10-10V10c0-5.523-4.478-10-10-10s-10 4.477-10 10v45.315c0 5.523 4.478 9.999 10 9.999zm65.322 25.094c2.56 0 5.118-.976 7.071-2.929l22.166-22.166c3.905-3.905 3.905-10.237 0-14.143-3.906-3.905-10.236-3.905-14.143 0l-22.166 22.166c-3.905 3.905-3.905 10.237 0 14.143a9.972 9.972 0 0 0 7.072 2.929zM183.61 87.479c1.953 1.953 4.512 2.929 7.071 2.929s5.118-.976 7.071-2.929c3.905-3.905 3.905-10.237 0-14.143L175.585 51.17c-3.906-3.905-10.236-3.905-14.143 0-3.905 3.905-3.905 10.237 0 14.143l22.168 22.166z"/></svg>