<svg height="512pt" viewBox="0 0 512 512" width="512pt" xmlns="http://www.w3.org/2000/svg"><path d="M402 222H110L10 322h492zm0 0" fill="#c8e7f9"/><path d="M10 322h492v180H10zm0 0" fill="#e6e6e6"/><path d="M396 150c0-77.32-62.68-140-140-140S116 72.68 116 150c0 52.352 28.738 97.98 71.297 122h137.406C367.262 247.98 396 202.352 396 150zm0 0" fill="#fa9600"/><path d="M56.996 420.434c1.274.867 3.035 1.238 4.426 1.238h15.93c13.066 0 22.14-7.863 22.14-21.242v-23.31c0-13.293-8.937-21.242-22.14-21.242h-15.93c-2.465 0-6.117 1.195-6.117 4.23v57.329c-.004 1.34.695 2.32 1.691 2.996zm12.348-52.313h8.008c5.402 0 8.101 3 8.101 9v23.309c0 6-2.7 9-8.101 9h-8.008zm66.058 54.449c5.457 0 10.246-1.922 14.356-5.761 4.11-3.84 6.164-8.278 6.164-13.32v-6.301c0-5.157-2.04-9.598-6.121-13.317-4.078-3.723-8.88-5.582-14.399-5.582-5.582 0-10.382 1.875-14.398 5.625-4.024 3.75-6.031 8.176-6.031 13.274v6.3c0 5.043 2.039 9.48 6.12 13.32 4.079 3.84 8.848 5.762 14.31 5.762zm-6.48-25.351c0-3.45 2.988-6.688 6.476-6.688 3.52 0 6.575 3.207 6.575 6.688v6.242c0 3.543-2.961 6.867-6.567 6.867-3.61.004-6.484-3.383-6.484-6.867v-6.242zm44.438 23.176c1.511.91 3.57 1.277 4.968 1.277 2.344 0 7.024-1.207 7.024-4.309v-20.101c0-3.41 2.378-6.73 6.027-6.73 3.496-.005 6.48 3.32 6.48 6.726v20.101c0 3.246 4.422 4.309 6.934 4.309 2.644 0 7.02-.934 7.02-4.32v-20.16c0-8.555-5.727-18.899-15.301-18.899-5 0-9.59 2.461-12.125 6.82 2.164-3.718-3.383-6.28-6.059-6.28-2.574 0-6.926.898-6.926 4.23v34.285c0 1.375.825 2.367 1.957 3.05zm73.73-23.442c-5.324 0-10.985.492-15.613 3.004-3.633 1.969-5.446 5.348-5.446 10.145 0 4.062 1.094 7.156 3.285 9.28s4.934 3.188 8.235 3.188c4.98 0 9.539-2.543 13.68-7.629v2.118c0 3.152 3.546 4.613 6.21 4.613 2.543 0 6.84-1.05 6.84-4.32V395.93c0-11.778-9.828-17.64-20.52-17.64-3.984 0-15.39 1.444-15.39 7.198 0 2.653 1.25 6.93 4.68 6.934 1.23 0 2.379-1.223 3.426-1.711 1.918-.89 4.109-1.578 6.226-1.695 2.246-.125 4.649.554 6.094 2.28 1.293 1.548 1.637 3.696 1.531 5.712a109.36 109.36 0 0 0-3.238-.055zm3.242 7.14c0 2.005-.754 3.782-2.25 5.34-1.5 1.56-3.004 2.337-4.5 2.337-2.34 0-3.512-1.168-3.512-3.504 0-1.278.508-2.266 1.532-2.961 1.02-.696 2.171-1.125 3.464-1.293 1.29-.168 2.926-.25 4.907-.25h.359zm48.148 17.579h3.872c3.535 0 5.937-2.617 5.937-6.121 0-3.418-2.539-6.121-5.937-6.121h-3.872c-1.382 0-2.34-.239-2.878-.711-.543-.477-.813-1.328-.813-2.563V389.63h10.172c2.648 0 3.418-3.336 3.418-5.399 0-2.066-.809-5.402-3.418-5.402h-10.172v-13.7c0-3.093-4.742-4.026-7.02-4.026-2.359 0-6.93 1.062-6.93 4.168v41.414c0 9.992 5.88 14.988 17.641 14.988zm26.008-52.962c1.442 1.228 3.184 1.84 5.223 1.84 1.98 0 3.687-.613 5.129-1.84 1.441-1.226 2.16-2.667 2.16-4.323 0-1.653-.719-3.082-2.16-4.278-1.438-1.199-3.149-1.8-5.13-1.8-2.038 0-3.78.601-5.222 1.8-1.437 1.196-2.16 2.625-2.16 4.278 0 1.656.723 3.097 2.16 4.324zm5.222 52.962c2.392 0 7.02-1.184 7.02-4.32v-34.29c0-3.347-4.472-4.234-7.02-4.234-2.558 0-6.929.942-6.929 4.23v34.29c0 3.242 4.45 4.324 6.93 4.324zm42.84.898c10.208 0 20.52-8.52 20.52-19.082v-6.3c0-10.81-10.226-18.899-20.52-18.899-10.359 0-20.429 8.113-20.429 18.899v6.3c-.004 10.672 10.195 19.082 20.43 19.082zm-6.48-25.351c0-3.418 3.016-6.688 6.477-6.688 3.445 0 6.57 3.301 6.57 6.688v6.242c0 3.555-2.941 6.867-6.566 6.867-3.64.004-6.48-3.34-6.48-6.867zm44.438 23.179c1.512.907 3.57 1.274 4.972 1.274 2.36 0 7.016-1.219 7.016-4.309v-12.078c0-4.844-1.555-14.754 6.031-14.754 3.43 0 6.48 3.211 6.48 6.73v20.098c0 3.293 4.376 4.313 6.93 4.313 2.653 0 7.02-.926 7.02-4.32v-20.16c0-8.57-5.703-18.903-15.3-18.903-2.821 0-5.294.668-7.427 1.996-2.128 1.332-3.675 2.961-4.632 4.899v-2.09c0-3.082-3.594-4.262-6.121-4.262-2.582 0-6.93.867-6.93 4.227v34.289c0 1.375.824 2.367 1.96 3.05zm0 0"/><path d="m509.07 314.93-100-100A10 10 0 0 0 402 212h-9.473c8.73-19.18 13.473-40.27 13.473-62C406 67.29 338.71 0 256 0S106 67.29 106 150c0 21.73 4.742 42.82 13.473 62H110a10 10 0 0 0-7.07 2.93S3.066 314.79 2.922 314.94C1.246 316.63 0 319.54 0 322v180c0 5.523 4.477 10 10 10h492c5.523 0 10-4.477 10-10V322c0-.11 0-3-2.93-7.07zM256 20c71.684 0 130 58.316 130 130 0 45.973-24.445 88.645-63.977 112h-132.05C150.445 238.645 126 195.973 126 150c0-71.684 58.316-130 130-130zM114.14 232h16.333a150.438 150.438 0 0 0 25.797 30H116c-5.523 0-10 4.477-10 10s4.477 10 10 10h280c5.523 0 10-4.477 10-10s-4.477-10-10-10h-40.27a150.438 150.438 0 0 0 25.797-30h16.332l80 80H34.141zM492 492H20V332h472zm0 0"/><path d="M50 472h166c5.512 0 10-4.488 10-10s-4.488-10-10-10H50c-5.512 0-10 4.488-10 10s4.488 10 10 10zm236-10c0 5.512 4.48 10 10 10h166c5.512 0 10-4.488 10-10s-4.488-10-10-10H296c-5.52 0-10 4.488-10 10zm-30-10c-5.52 0-10 4.488-10 10s4.48 10 10 10c5.512 0 10-4.488 10-10s-4.488-10-10-10zm-50-271c0-5.523-4.477-10-10-10s-10 4.477-10 10c0 20.324 16.16 37.445 40 45.336V230c0 5.523 4.477 10 10 10 5.355 0 9.71-4.21 9.977-9.496 3.27.32 6.613.496 10.023.496s6.758-.176 10.023-.496c.266 5.285 4.625 9.496 9.977 9.496 5.523 0 10-4.477 10-10v-3.664c23.84-7.89 40-25.016 40-45.336s-16.16-37.445-40-45.336V77.195c12.059 5.535 20 14.23 20 23.805 0 5.523 4.477 10 10 10s10-4.477 10-10c0-20.324-16.16-37.445-40-45.336V50c0-5.523-4.477-10-10-10s-10 4.477-10 10v1.496c-3.262-.32-6.598-.496-10-.496s-6.738.176-10 .496V50c0-5.523-4.477-10-10-10s-10 4.477-10 10v5.664c-23.84 7.89-40 25.016-40 45.336s16.16 37.445 40 45.336v58.469c-12.059-5.535-20-14.23-20-23.805zm80-23.805c12.059 5.535 20 14.23 20 23.805s-7.941 18.27-20 23.805zm-40-85.562c3.242-.414 6.586-.633 10-.633s6.758.219 10 .633v59.863c-3.262-.32-6.598-.496-10-.496-3.414 0-6.758-.219-10-.633zm0 78.87c3.262.321 6.598.497 10 .497 3.414 0 6.758.219 10 .633v58.734c-3.242.414-6.586.633-10 .633s-6.758-.219-10-.633zM206 101c0-9.574 7.941-18.27 20-23.805v47.61c-12.059-5.535-20-14.23-20-23.805zm0 0"/></svg>