<svg xmlns="http://www.w3.org/2000/svg" viewBox="0 0 512.001 512.001" style="enable-background:new 0 0 512.001 512.001" xml:space="preserve"><circle style="fill:#fac149" cx="264.275" cy="256" r="247.726"/><path style="fill:#f98094" d="m205.768 464.4-.149-.148-.062-.061a1.139 1.139 0 0 0-.035-.034C198.548 457.179 45.803 304.435 40.968 299.6c-54.586-54.586-54.586-143.404 0-197.99 26.344-26.344 61.501-40.853 98.994-40.853 62.416 0 98.674 40.827 99.56 41.418l.565-.566c54.518-54.518 143.475-54.515 197.989 0 54.518 54.517 54.516 143.475 0 197.99L273.488 464.19c-18.689 18.687-49.004 18.699-67.72.21z"/><path style="fill:#fc5b6f" d="M259.573 439.153c-.1-.098-13.921-13.921-164.8-164.8-54.586-54.586-54.586-143.404 0-197.99a140.767 140.767 0 0 1 13.825-12.122C2.913 88.147-37.369 221.262 40.968 299.6a25863867.89 25863867.89 0 0 1 164.59 164.59l.062.062.149.149v-.001c18.727 18.5 49.041 18.467 67.721-.21l11.872-11.872c-9.436-1.576-18.49-5.954-25.789-13.165z"/><path style="fill:#f74352" d="M224.954 444.793c8.033 8.032 21.106 8.034 29.138 0l164.589-164.59c43.798-43.798 43.796-115.403 0-159.198-21.163-21.163-49.431-32.818-79.598-32.818-53.93 0-82.176 36.183-84.758 37.979a20.794 20.794 0 0 1-14.801 6.13c-11.723 0-16.703-8.731-19.961-11.29-21.163-21.164-49.431-32.818-79.598-32.818-100.017 0-150.327 121.286-79.598 192.015 35.31 35.313 164.475 164.481 164.587 164.59z"/><path style="fill:#e2344a" d="M259.573 439.153c-.1-.098-13.921-13.921-164.8-164.8-43.254-43.254-52.225-108-26.929-160.178-50.795 42.445-54.137 119.369-7.48 166.028 39.359 39.359 164.489 164.492 164.59 164.59 8.033 8.032 21.106 8.034 29.138 0l5.563-5.563c-.027-.026-.055-.05-.082-.077z"/><path style="fill:#2fcc63" d="M248.079 244.781v191.856c0 9.465 7.745 17.261 17.271 17.261H413.3c69.404-52.348 107.242-137.465 97.062-226.377H265.351c-9.645-.001-17.272 7.956-17.272 17.26z"/><path style="fill:#2fcc63" d="M248.079 244.781v191.856c0 9.465 7.745 17.261 17.271 17.261H413.3c69.404-52.348 107.242-137.465 97.062-226.377H265.351c-9.645-.001-17.272 7.956-17.272 17.26z"/><path style="fill:#23b658" d="M275.077 436.637V244.781c0-9.304 7.628-17.261 17.271-17.261H265.35c-9.642 0-17.271 7.957-17.271 17.261v191.856c0 9.466 7.745 17.261 17.271 17.261h26.998c-9.526-.001-17.271-7.795-17.271-17.261zm152.978-160.461c-35.64 0-64.532 28.892-64.532 64.532 0 60.218 75.404 87.368 113.957 41.478a246.96 246.96 0 0 0 12.985-25.029 64.601 64.601 0 0 0 2.123-16.449c0-35.639-28.893-64.532-64.533-64.532z"/><path style="fill:#16a847" d="M390.522 340.709c0-31.009 21.875-56.9 51.033-63.107a64.765 64.765 0 0 0-13.499-1.425c-35.64 0-64.532 28.892-64.532 64.532 0 41.02 37.781 71.66 78.008 63.101-29.147-6.217-51.01-32.101-51.01-63.101z"/><path style="fill:#23b658" d="M265.35 227.52h58.046c0 41.596-33.72 75.317-75.317 75.317v-58.056c0-9.404 7.694-17.261 17.271-17.261z"/><path style="fill:#16a847" d="M275.077 244.781c0-9.303 7.627-17.259 17.268-17.261-28.816 0-28.781-.276-32.164.794-6.986 2.204-12.102 8.878-12.102 16.467v58.056a75.083 75.083 0 0 0 26.998-5.005v-53.051z"/><path style="fill:#23b658" d="M265.35 453.897h58.046c0-41.596-33.72-75.317-75.317-75.317v58.056c0 9.406 7.694 17.261 17.271 17.261z"/><path style="fill:#16a847" d="M275.077 436.637v-53.051a75.087 75.087 0 0 0-26.998-5.005v58.056c0 9.475 7.753 17.248 17.249 17.26 1.296.002 25.473.001 27.019.001-9.525-.001-17.27-7.795-17.27-17.261z"/><path style="fill:#7ce89b" d="M337.975 333.089h-19.642a7.62 7.62 0 1 0 0 15.24h19.642a7.62 7.62 0 1 0 0-15.24zm96.886.624v-13.449h6.12a7.62 7.62 0 1 0 0-15.24h-6.12v-.892a7.62 7.62 0 1 0-15.24 0v.95c-11.563.6-20.793 10.167-20.793 21.877 0 11.71 9.23 21.278 20.793 21.878v13.448h-6.904a7.62 7.62 0 1 0 0 15.24h6.916c.127 4.098 3.48 7.382 7.608 7.382 4.147 0 7.514-3.315 7.611-7.439 11.567-.595 20.803-10.164 20.803-21.877-.001-11.711-9.232-21.279-20.794-21.878zm-20.794-6.755c0-3.302 2.405-6.046 5.554-6.591v13.181c-3.148-.542-5.554-3.288-5.554-6.59zm20.794 35.221v-13.18c7.374 1.274 7.37 11.906 0 13.18z"/></svg>