<svg xmlns="http://www.w3.org/2000/svg" viewBox="0 0 512 512" style="enable-background:new 0 0 512 512" xml:space="preserve"><path style="fill:#fbc8ad" d="M169.027 380.547c1.295-13.368 11.953-24.337 25.823-25.562l86.059-7.557 108.911-34.484 112.143 58.199-52.067 100.34-58.821-30.53-166.367 32.477L25.381 370.08c-9.755-5.058-15.345-14.984-15.345-25.261 0-4.406 1.024-8.892 3.201-13.077 7.236-13.95 24.398-19.38 38.338-12.144l117.452 60.949z"/><path style="fill:#fbc640" d="M255.999 38.57c-71.537 0-129.535 57.998-129.535 129.535 0 71.547 57.998 129.535 129.535 129.535s129.535-57.988 129.535-129.535c0-71.537-57.998-129.535-129.535-129.535z"/><path d="M380.867 365.594c-5.54 0-10.036 4.496-10.036 10.036 0 5.54 4.496 10.036 10.036 10.036 5.54 0 10.036-4.496 10.036-10.036 0-5.54-4.496-10.036-10.036-10.036zM230.658 203.482c0-5.543-4.494-10.036-10.036-10.036s-10.036 4.493-10.036 10.036c0 21.592 15.151 39.7 35.377 44.282v13.345c0 5.543 4.494 10.036 10.036 10.036s10.036-4.493 10.036-10.036v-13.345c20.226-4.582 35.377-22.69 35.377-44.282s-15.151-39.7-35.377-44.282v-49.727c8.994 3.894 15.305 12.85 15.305 23.254 0 5.543 4.494 10.036 10.036 10.036s10.036-4.493 10.036-10.036c0-21.586-15.151-39.69-35.377-44.272V75.111c0-5.543-4.494-10.036-10.036-10.036s-10.036 4.493-10.036 10.036v13.345c-20.226 4.581-35.377 22.684-35.377 44.272 0 21.592 15.151 39.7 35.377 44.282v49.737c-8.994-3.897-15.305-12.856-15.305-23.265zm50.682 0c0 10.409-6.311 19.369-15.305 23.265v-46.529c8.994 3.895 15.305 12.854 15.305 23.264zm-50.682-70.754c0-10.405 6.311-19.362 15.305-23.254v46.519c-8.994-3.897-15.305-12.856-15.305-23.265z"/><path d="M255.999 307.676c76.96 0 139.571-62.612 139.571-139.571S332.958 28.534 255.999 28.534 116.428 91.145 116.428 168.105c0 76.96 62.611 139.571 139.571 139.571zm0-259.07c65.892 0 119.499 53.607 119.499 119.499 0 65.893-53.607 119.499-119.499 119.499S136.5 233.996 136.5 168.105c0-65.892 53.607-119.499 119.499-119.499z"/><path d="m506.586 362.236-112.143-58.199a9.62 9.62 0 0 0-.176-.088c-.129-.064-.262-.113-.392-.173-.126-.056-.25-.115-.378-.166a10.192 10.192 0 0 0-.753-.263c-.038-.011-.075-.025-.113-.036a9.967 9.967 0 0 0-6.327.22l-107.37 33.996-84.965 7.461c-13.62 1.202-25.182 9.445-31.027 21.094L56.2 310.692c-9.123-4.735-19.538-5.636-29.335-2.533-9.798 3.102-17.8 9.837-22.528 18.952A38.494 38.494 0 0 0 0 344.819c0 14.437 7.956 27.53 20.762 34.17L220.087 482.34a10.034 10.034 0 0 0 6.544.941l162.93-31.805 55.713 28.916a10.033 10.033 0 0 0 13.53-4.285l52.067-100.34c2.552-4.921.633-10.978-4.285-13.531zm-60.975 95.716-49.913-25.906a10.046 10.046 0 0 0-6.546-.942L226.22 462.91 30.002 361.171a18.352 18.352 0 0 1-9.93-16.352c0-2.966.695-5.806 2.074-8.455a18.277 18.277 0 0 1 10.775-9.071 18.275 18.275 0 0 1 14.029 1.213l112.056 58.149.002.031c1.763 20.015 18.227 35.108 38.297 35.108 1.072 0 2.202-.049 3.398-.15l90.782-7.975a10.007 10.007 0 0 0 3.35-.464l58.149-18.416c5.284-1.673 8.211-7.314 6.537-12.597a10.033 10.033 0 0 0-12.598-6.537l-56.783 17.984-91.152 8.008c-.601.05-1.167.076-1.683.076-9.433 0-17.474-7.379-18.305-16.817a18.801 18.801 0 0 1 .008-3.304c.004-.04.005-.082.009-.122.868-8.783 7.889-15.719 16.707-16.497l86.059-7.557a9.952 9.952 0 0 0 2.152-.43l104.948-33.229 99.546 51.661-42.818 82.524z"/></svg>