<svg height="496pt" viewBox="-52 0 496 496" width="496pt" xmlns="http://www.w3.org/2000/svg"><path d="m260.176 282.785 37.93-37.93-17.344-24.28c4.023-7.47 7.285-15.391 9.773-23.665L320 192v-64l-29.457-4.91c-2.488-8.274-5.758-16.195-9.773-23.664l17.343-24.281-45.258-45.258-24.28 17.343c-7.47-4.023-15.391-7.285-23.665-9.773L200 8h-64l-4.91 29.457c-8.266 2.488-16.195 5.758-23.664 9.773L83.145 29.887 37.887 75.145l17.343 24.28c-4.023 7.47-7.285 15.391-9.773 23.665L16 128v64l29.457 4.91c2.488 8.274 5.758 16.195 9.773 23.664l-17.343 24.281L73.039 280zm0 0" fill="#fcd770"/><path d="M117.383 98.063C131.168 86.784 148.793 80 168 80c44.184 0 80 35.816 80 80 0 19.207-6.785 36.832-18.063 50.617l-11.312 11.313C204.832 233.215 187.207 240 168 240c-44.184 0-80-35.816-80-80 0-19.207 6.785-36.832 18.063-50.617zm0 0" fill="#ffeaa7"/><path d="M271.473 271.488C254.383 261.695 234.527 256 213.238 256h-59.476c-4.395-4.871-10.7-8-17.762-8h-32c-9.96 0-18.52 6.105-22.145 14.77a114.926 114.926 0 0 0-17.765 8.277L73.04 280l6.96.105 80 1.192 100.184 1.488zm0 0" fill="#ffc729"/><path d="M95.992 275.031C67.848 282.297 44.734 302.047 32.81 328H16c-4.414 0-8 3.586-8 8v64c0 4.414 3.586 8 8 8h16.816c8.727 18.984 23.457 34.625 41.75 44.504L80 488h48l4-24h72l4 24h48l5.434-35.426c31.238-16.812 52.109-50.422 50.476-88.75-2.2-51.832-46.789-91.824-98.664-91.824H144zm0 0" fill="#f5e0cd"/><path d="M136 328c-22.09 0-40-17.91-40-40v-16c0-4.414 3.586-8 8-8h32c4.414 0 8 3.586 8 8v48c0 4.414-3.586 8-8 8zm0 0" fill="#f0d0b4"/><path d="m232 416-41.375-41.375a22.63 22.63 0 0 1-6.625-16C184 346.129 194.129 336 206.625 336c6 0 11.758 2.383 16 6.625L232 352l9.375-9.375a22.63 22.63 0 0 1 16-6.625C269.871 336 280 346.129 280 358.625c0 6-2.383 11.758-6.625 16zm0 0" fill="#ff826e"/><path d="M152 128h32c4.414 0 8 3.594 8 8h16c0-13.23-10.77-24-24-24h-8v-8h-16v8h-8c-13.23 0-24 10.77-24 24v8c0 13.23 10.77 24 24 24h32c4.414 0 8 3.594 8 8v8c0 4.406-3.586 8-8 8h-32c-4.414 0-8-3.594-8-8h-16c0 13.23 10.77 24 24 24h8v8h16v-8h8c13.23 0 24-10.77 24-24v-8c0-13.23-10.77-24-24-24h-32c-4.414 0-8-3.594-8-8v-8c0-4.406 3.586-8 8-8zm0 0"/><path d="M168 248c20.246 0 40.023-7.055 55.688-19.871l-10.145-12.387C200.743 226.222 184.559 232 168 232c-39.703 0-72-32.305-72-72 0-16.559 5.777-32.742 16.258-45.55l-12.38-10.138C87.063 119.977 80 139.755 80 160c0 48.52 39.48 88 88 88zm0-160c39.703 0 72 32.305 72 72 0 16.559-5.777 32.742-16.258 45.55l12.38 10.137C248.936 200.024 256 180.248 256 160c0-48.52-39.48-88-88-88-20.246 0-40.023 7.055-55.688 19.871l10.145 12.387C135.257 93.778 151.441 88 168 88zm-8-56h16v16h-16zM71.84 75.148l11.312-11.312 11.313 11.312-11.313 11.313zM40 152h16v16H40zm31.836 92.852 11.316-11.313 11.313 11.313-11.313 11.312zm169.704 0 11.315-11.313 11.313 11.313-11.313 11.312zM280 152h16v16h-16zm-38.46-76.852 11.315-11.312 11.313 11.312-11.313 11.317zm0 0"/><path d="M368 360h-7.543c1.766-15.473 8.656-29.8 19.832-40.969l1.375-1.375-11.312-11.312-1.375 1.375c-14.2 14.203-22.778 32.527-24.602 52.281h-24.781c-2.524-32.895-20.473-61.266-46.86-78.45l35.832-35.831-18.445-25.832a134.376 134.376 0 0 0 6.55-15.887L328 198.777v-77.554L296.664 116a134.376 134.376 0 0 0-6.55-15.887l18.445-25.832-54.84-54.84-25.832 18.446a136.665 136.665 0 0 0-15.895-6.559L206.785 0h-77.562l-5.207 31.336a134.218 134.218 0 0 0-15.895 6.559L82.281 19.44 27.45 74.281l18.446 25.832A134.376 134.376 0 0 0 39.344 116L8 121.223v77.554L39.336 204a134.376 134.376 0 0 0 6.55 15.887l-18.445 25.832 35.43 35.433c-14.64 9.649-26.758 22.895-35.055 38.856H16c-8.824 0-16 7.176-16 16v64c0 8.824 7.176 16 16 16h11.832c8.961 17.144 22.734 31.664 39.414 41.55L73.136 496h61.641l4-24h58.453l4 24h61.641l5.883-38.367c29.68-17.45 48.36-47.73 50.91-81.633H344v8c0 13.23 10.77 24 24 24s24-10.77 24-24-10.77-24-24-24zM48.336 243.992l16.305-22.824-2.36-4.383c-3.761-6.984-6.832-14.441-9.16-22.168l-1.441-4.77L24 185.224v-50.446l27.688-4.617 1.44-4.77c2.321-7.726 5.4-15.19 9.161-22.167l2.36-4.383-16.305-22.824 35.68-35.672 22.824 16.304 4.382-2.359c6.961-3.746 14.426-6.832 22.176-9.16l4.77-1.434L142.786 16h50.437l4.617 27.68 4.77 1.433c7.757 2.336 15.214 5.414 22.175 9.16l4.383 2.36 22.824-16.305L287.672 76l-16.305 22.824 2.36 4.383c3.761 6.984 6.832 14.441 9.16 22.168l1.441 4.77L312 134.777v50.446l-27.688 4.617-1.44 4.77c-2.321 7.726-5.4 15.19-9.161 22.167l-2.36 4.383 16.305 22.824-29.625 29.625c-13.633-6.105-28.765-9.609-44.793-9.609H149.77c-2.778-4.762-7.883-8-13.778-8h-32c-7.824 0-14.328 5.656-15.703 13.09a103.76 103.76 0 0 0-10.754 4.101zM136.016 320H136c-17.648 0-32-14.352-32-32v-16h32zM257.64 445.52l-3.512 1.886L249.137 480h-34.36l-4-24h-85.554l-4 24h-34.36l-5-32.633-3.504-1.894c-16.757-9.067-30.351-23.551-38.289-40.817L37.938 400H16v-64h21.938l2.14-4.656c9.656-21 26.817-37.063 47.922-45.305V288c0 26.473 21.527 48 48 48 8.824 0 16-7.176 16-16v-40h61.238c48.035 0 88.707 37.762 90.684 84.16 1.445 34.047-16.29 65.223-46.281 81.36zM368 392c-4.414 0-8-3.586-8-8v-8h8c4.414 0 8 3.586 8 8s-3.586 8-8 8zm0 0"/><path d="M235.719 336.969 232 340.688l-3.719-3.72c-5.785-5.784-13.472-8.968-21.656-8.968C189.742 328 176 341.742 176 358.625c0 8.176 3.184 15.871 8.969 21.656L232 427.312l47.031-47.03c5.785-5.786 8.969-13.473 8.969-21.657C288 341.742 274.258 328 257.375 328c-8.184 0-15.871 3.184-21.656 8.969zM272 358.625c0 3.848-1.559 7.621-4.281 10.344L232 404.688l-35.719-35.72A14.719 14.719 0 0 1 192 358.626c0-8.066 6.559-14.625 14.625-14.625 3.848 0 7.621 1.559 10.344 4.281L232 363.312l15.031-15.03A14.719 14.719 0 0 1 257.375 344c8.066 0 14.625 6.559 14.625 14.625zM88 336a8 8 0 1 1-16 0 8 8 0 0 1 16 0zm0 0"/></svg>