<svg xmlns="http://www.w3.org/2000/svg" viewBox="0 0 512.001 512.001" style="enable-background:new 0 0 512.001 512.001" xml:space="preserve"><path style="fill:#fdd7ad" d="M468.334 93.868h-102.4v-8.533a33.898 33.898 0 0 0-51.2-29.386V34.134c0-18.851-15.282-34.133-34.133-34.133s-34.133 15.282-34.133 34.133V47.4a33.768 33.768 0 0 0-17.067-4.732c-18.843.02-34.113 15.29-34.133 34.133v17.067h-153.6c-9.414.028-17.039 7.652-17.067 17.067v187.733c.028 9.414 7.653 17.039 17.067 17.067h102.827v.683c3.661 45.561 32.879 103.345 41.198 118.996a8.466 8.466 0 0 0-7.491 8.322v51.2a8.558 8.558 0 0 0 8.533 8.533h170.667a8.558 8.558 0 0 0 8.533-8.533v-51.2a8.422 8.422 0 0 0-4.154-7.14c37.815-29.84 38.288-84.256 38.288-86.727v-34.133h68.267c9.414-.028 17.039-7.652 17.067-17.067V110.934c-.03-9.414-7.655-17.039-17.069-17.066z" transform="translate(1)"/><path style="fill:#795548" d="M357.401 85.334v8.533h-51.2v-8.533c0-14.138 11.462-25.6 25.6-25.6 14.138 0 25.6 11.462 25.6 25.6z" transform="translate(1)"/><path style="fill:#795548" d="M306.201 34.134v59.733h-51.2V34.134c0-14.138 11.462-25.6 25.6-25.6s25.6 11.462 25.6 25.6zm-51.2 42.667v17.067h-51.2V76.801c0-14.138 11.462-25.6 25.6-25.6s25.6 11.462 25.6 25.6z" transform="translate(1)"/><path style="fill:#4caf50" d="M468.334 93.868H41.667c-9.414.028-17.039 7.652-17.067 17.067v187.733c.028 9.414 7.653 17.039 17.067 17.067h246.869a76.856 76.856 0 0 1 51.713-25.6c.023 0 .045-.008.061-.024s.025-.038.024-.061h51.2v25.685h76.8c9.414-.028 17.039-7.652 17.067-17.067V110.934c-.028-9.414-7.653-17.039-17.067-17.066z" transform="translate(1)"/><path style="fill:#2e7d32" d="M485.401 110.934v187.733c-.028 9.414-7.652 17.039-17.067 17.067h-25.6c9.414-.028 17.039-7.652 17.067-17.067V110.934c-.028-9.414-7.652-17.039-17.067-17.067h25.6c9.414.028 17.039 7.653 17.067 17.067z" transform="translate(1)"/><path style="fill:#cddc39" d="M254.317 280.236v1.365H92.867a34.127 34.127 0 0 0-34.134-34.134v-85.333a34.123 34.123 0 0 0 34.133-34.133h161.45c-42.038 0-76.117 34.079-76.117 76.117s34.08 76.118 76.118 76.118z" transform="translate(1)"/><path style="fill:#9e9d24" d="M451.267 162.134v85.333a34.127 34.127 0 0 0-34.134 34.134H254.317v-1.365c39.866-.028 72.957-30.811 75.863-70.571.171-1.792.256-3.669.256-5.547-.019-41.765-33.672-75.722-75.435-76.117h162.133a34.123 34.123 0 0 0 34.133 34.133z" transform="translate(1)"/><path style="fill:#cddc39" d="M425.667 162.134v85.333a34.127 34.127 0 0 0-34.134 34.134H254.317v-1.365c39.866-.028 72.957-30.811 75.863-70.571.171-1.792.256-3.669.256-5.547-.019-41.765-33.672-75.722-75.435-76.117h136.533a34.123 34.123 0 0 0 34.133 34.133z" transform="translate(1)"/><path style="fill:#4caf50" d="M330.436 204.118c0 1.877-.085 3.755-.256 5.547-3.025 41.192-38.359 72.45-79.612 70.428-41.254-2.022-73.362-36.585-72.344-77.876s34.79-74.23 76.093-74.216H255c41.764.395 75.417 34.352 75.436 76.117z" transform="translate(1)"/><path style="fill:#1566c0" d="M186.734 426.668h170.667a8.533 8.533 0 0 1 8.533 8.533v59.733a8.533 8.533 0 0 1-8.533 8.533H186.734a8.533 8.533 0 0 1-8.533-8.533v-59.733a8.533 8.533 0 0 1 8.533-8.533z" transform="translate(1)"/><path style="fill:#2296f3" d="M186.734 426.668h145.067a8.533 8.533 0 0 1 8.533 8.533v59.733a8.533 8.533 0 0 1-8.533 8.533H186.734a8.533 8.533 0 0 1-8.533-8.533v-59.733a8.533 8.533 0 0 1 8.533-8.533z" transform="translate(1)"/><path style="fill:#4e342e" d="M391.534 213.334v136.533s0 59.733-42.667 85.333h-153.6s-38.144-68.693-42.24-119.467h135.509a76.856 76.856 0 0 1 51.713-25.6c.023 0 .045-.008.061-.024s.025-.038.024-.061v-76.715c0-14.139 11.462-25.6 25.6-25.6 14.138.001 25.6 11.463 25.6 25.601z" transform="translate(1)"/><path style="fill:#795548" d="M365.934 213.334v136.533s0 59.733-42.667 85.333h-128s-38.144-68.693-42.24-119.467h135.509a76.856 76.856 0 0 1 51.713-25.6c.023 0 .045-.008.061-.024s.025-.038.024-.061v-76.715a25.568 25.568 0 0 1 12.8-22.187 28.244 28.244 0 0 1 5.291 4.096 25.553 25.553 0 0 1 7.509 18.092z" transform="translate(1)"/><path d="M305.726 10.009a34.118 34.118 0 0 0-58.258 24.125V47.4a33.768 33.768 0 0 0-17.067-4.732c-18.843.02-34.113 15.29-34.133 34.133v8.533h-153.6c-14.132.015-25.585 11.468-25.6 25.6v187.733c.015 14.132 11.468 25.585 25.6 25.6h103.769c5.244 38.252 25.712 82.535 36.184 103.27a17.031 17.031 0 0 0-11.953 16.197v51.2c.011 9.421 7.645 17.056 17.067 17.067h170.667c9.421-.011 17.056-7.645 17.067-17.067v-51.2a16.955 16.955 0 0 0-6.059-12.932c31.24-30.546 31.659-78.623 31.659-80.934v-25.6h68.267c14.132-.015 25.585-11.468 25.6-25.6V110.934c-.015-14.132-11.468-25.585-25.6-25.6h-102.4a33.898 33.898 0 0 0-51.2-29.386V34.134a33.893 33.893 0 0 0-10.01-24.125zm-41.192 24.125c0-9.426 7.641-17.067 17.067-17.067s17.067 7.641 17.067 17.067v51.2h-34.133v-51.2zm-51.2 42.667c0-9.426 7.641-17.067 17.067-17.067s17.067 7.641 17.067 17.067v8.533h-34.133v-8.533zm-25.6 418.133v-51.2h170.667l.009 51.2H187.734zm196.267-145.079c0 .542-.671 53.424-36.765 76.812H201.385c-7.559-14.407-31.626-62.51-37.755-102.4h110.23a84.17 84.17 0 0 0-9.326 34.133 8.52 8.52 0 0 0 8.5 8.516h.033a8.552 8.552 0 0 0 8.533-8.483c.017-2.133 1.117-52.375 60.791-59.833a8.22 8.22 0 0 0 1.485-.472 6.537 6.537 0 0 0 3.22-1.846c.084-.08.188-.13.269-.213a8.436 8.436 0 0 0 2.501-5.935v-76.8c0-9.426 7.641-17.067 17.067-17.067S384 203.908 384 213.334v136.521zm-282.463-76.787a42.79 42.79 0 0 0-33.271-33.271v-69.992a42.79 42.79 0 0 0 33.271-33.271h103.405a84.78 84.78 0 0 0 0 136.533H101.538zm214.804-19.996a8.529 8.529 0 0 0-12.066 0 68.008 68.008 0 0 1-21.708 14.637 68.861 68.861 0 0 1-53.133 0c-25.267-10.695-41.684-35.471-41.684-62.908s16.416-52.213 41.684-62.908a68.861 68.861 0 0 1 53.133 0 67.997 67.997 0 0 1 21.708 14.637 8.534 8.534 0 0 0 12.067-12.067 85.75 85.75 0 0 0-9.284-7.929h103.405a42.79 42.79 0 0 0 33.271 33.271v69.992a42.79 42.79 0 0 0-33.271 33.271h-9.396v-59.733c0-18.851-15.282-34.133-34.133-34.133-18.851 0-34.133 15.282-34.133 34.133v59.733h-25.743a85.75 85.75 0 0 0 9.284-7.929 8.529 8.529 0 0 0-.001-12.067zm152.992-150.671a8.54 8.54 0 0 1 8.533 8.533v187.733a8.54 8.54 0 0 1-8.533 8.533h-68.267v-17.067h17.067a8.53 8.53 0 0 0 8.534-8.534c.015-14.132 11.468-25.585 25.6-25.6a8.53 8.53 0 0 0 8.534-8.534v-85.333a8.53 8.53 0 0 0-8.534-8.534c-14.132-.015-25.585-11.468-25.6-25.6a8.53 8.53 0 0 0-8.534-8.534H93.867a8.53 8.53 0 0 0-8.534 8.534c-.015 14.132-11.468 25.585-25.6 25.6a8.53 8.53 0 0 0-8.534 8.534v85.333a8.53 8.53 0 0 0 8.534 8.534c14.132.015 25.585 11.468 25.6 25.6a8.53 8.53 0 0 0 8.534 8.534h215.815a75.871 75.871 0 0 0-23.781 17.067H42.667a8.54 8.54 0 0 1-8.533-8.533V110.934a8.54 8.54 0 0 1 8.533-8.533h426.667zM332.801 68.268c9.418.018 17.049 7.649 17.067 17.067h-34.133c.01-9.422 7.644-17.057 17.066-17.067z"/><path d="M279.959 203.155a38.73 38.73 0 0 0-14.858-5.983v-18.938a18.655 18.655 0 0 1 5.092 2.349 8.535 8.535 0 1 0 9.766-14 37.96 37.96 0 0 0-15.142-5.858 8.339 8.339 0 0 0-16.5.001 37.929 37.929 0 0 0-15.133 5.857 23.212 23.212 0 0 0-.009 39.859 38.752 38.752 0 0 0 14.858 5.987v18.935a18.61 18.61 0 0 1-5.075-2.343 8.536 8.536 0 0 0-9.783 13.991 38.857 38.857 0 0 0 15.181 6.057 8.328 8.328 0 0 0 16.42 0 38.835 38.835 0 0 0 15.189-6.061 23.206 23.206 0 0 0-.006-39.853zm-37.008-10.704a8.248 8.248 0 0 1-4.017-5.938 8.227 8.227 0 0 1 4.025-5.933 18.61 18.61 0 0 1 5.075-2.343v16.639a19.93 19.93 0 0 1-5.083-2.425zm27.241 36.567a18.655 18.655 0 0 1-5.092 2.349v-16.642a19.817 19.817 0 0 1 5.083 2.426 8.439 8.439 0 0 1 4.025 5.933 8.444 8.444 0 0 1-4.016 5.934zM93.867 179.201a8.53 8.53 0 0 0-8.534 8.534v34.133a8.533 8.533 0 0 0 17.066 0v-34.133a8.53 8.53 0 0 0-8.532-8.534zm324.267 51.2a8.53 8.53 0 0 0 8.534-8.534v-34.133a8.533 8.533 0 0 0-17.066 0v34.133a8.53 8.53 0 0 0 8.532 8.534z"/></svg>