<svg xmlns="http://www.w3.org/2000/svg" height="599pt" viewBox="-52 0 599 599.318" width="599pt"><path d="M41.441 144.586 93.082 599h309.824l51.64-454.414Zm0 0" style="stroke:none;fill-rule:nonzero;fill:#dadddf;fill-opacity:1"/><path d="M.133 61.965h495.722v82.62H.133Zm0 0" style="stroke:none;fill-rule:nonzero;fill:#875339;fill-opacity:1"/><path d="M41.441 61.965h413.106L444.219 0H51.769Zm0 0" style="stroke:none;fill-rule:nonzero;fill:#75462e;fill-opacity:1"/><path d="m464.871 237.535-30.98 227.207H62.098L31.113 237.535Zm0 0" style="stroke:none;fill-rule:nonzero;fill:#fdb62f;fill-opacity:1"/><path d="M444.219 0h-82.621l-61.965 61.965h154.914Zm0 0" style="stroke:none;fill-rule:nonzero;fill:#6e422b;fill-opacity:1"/><path d="M495.855 61.965H237.668l-82.621 82.62h340.808Zm0 0" style="stroke:none;fill-rule:nonzero;fill:#7d4a32;fill-opacity:1"/><path d="m415.816 485.395 2.344-20.653H77.828l2.344 20.653ZM452.2 165.242l2.347-20.656H41.44l2.344 20.656Zm0 0" style="stroke:none;fill-rule:nonzero;fill:#c7cacc;fill-opacity:1"/><path d="M464.871 237.535H401.09C340.94 340.81 247.992 413.102 144.719 464.742H433.89Zm0 0" style="stroke:none;fill-rule:nonzero;fill:#ffa230;fill-opacity:1"/></svg>