<svg height="512pt" viewBox="-38 0 512 512.002" width="512pt" xmlns="http://www.w3.org/2000/svg"><path d="M426.668 119.469v247.125c-.215 9.793-8.297 17.57-18.09 17.41H128V25.94c.215-9.789 8.3-17.566 18.09-17.406h186.027l.684 98.219c.047 7.035 5.765 12.715 12.8 12.715zm0 0" fill="#f57c00"/><path d="M401.066 119.469v247.125c-.214 9.793-8.296 17.57-18.09 17.41H128V25.94c.215-9.789 8.3-17.566 18.09-17.406h160.43l.68 98.219c.046 7.035 5.765 12.715 12.8 12.715zm0 0" fill="#fec108"/><path d="M426.668 111.02v8.449h-81.066c-7.036 0-12.754-5.68-12.801-12.715l-.684-98.219h5.973zm0 0" fill="#fdd834"/><path d="M247.469 362.668v42.668c0 7.07-5.73 12.8-12.801 12.8h-72.535v72.532c0 7.07-5.73 12.8-12.797 12.8h-42.668c-7.07 0-12.8-5.73-12.8-12.8v-72.531H21.335c-7.07 0-12.8-5.73-12.8-12.801v-42.668c0-7.07 5.73-12.8 12.8-12.8h72.531v-72.532c0-7.07 5.73-12.8 12.801-12.8h42.668c7.066 0 12.797 5.73 12.797 12.8v72.531h72.535c7.07 0 12.8 5.73 12.8 12.801zm0 0" fill="#1566c0"/><path d="M221.867 362.668v42.668c0 7.07-5.73 12.8-12.8 12.8h-72.532v72.532c0 7.07-5.73 12.8-12.8 12.8h-17.067c-7.07 0-12.8-5.73-12.8-12.8v-72.531H21.335c-7.07 0-12.8-5.73-12.8-12.801v-42.668c0-7.07 5.73-12.8 12.8-12.8h72.531v-72.532c0-7.07 5.73-12.8 12.801-12.8h17.066c7.07 0 12.801 5.73 12.801 12.8v72.531h72.531c7.07 0 12.801 5.73 12.801 12.801zm0 0" fill="#02a9f4"/><path d="M408.578 375.469H281.602a8.534 8.534 0 1 0 0 17.066h126.976c14.508.176 26.422-11.43 26.621-25.941V111.02a8.537 8.537 0 0 0-2.07-5.59L344.55 2.953a8.525 8.525 0 0 0-6.461-2.95h-192c-14.508-.175-26.422 11.43-26.621 25.938v204.461a8.533 8.533 0 0 0 8.531 8.532 8.533 8.533 0 0 0 8.535-8.532V25.942c.203-5.083 4.473-9.047 9.555-8.872h177.547l.633 89.743c.109 11.714 9.62 21.156 21.332 21.19h72.53v238.59a9.25 9.25 0 0 1-9.554 8.876zm-67.242-268.801-.555-82.04 74.535 86.306h-69.714a4.266 4.266 0 0 1-4.266-4.266zm0 0"/><path d="M106.668 512.004h42.668c11.781 0 21.332-9.555 21.332-21.336v-64h64c11.781 0 21.332-9.55 21.332-21.332v-42.668c0-11.781-9.55-21.332-21.332-21.332h-64v-64c0-11.781-9.55-21.332-21.332-21.332h-42.668c-11.781 0-21.332 9.55-21.332 21.332v64h-64C9.55 341.336 0 350.886 0 362.668v42.668c0 11.781 9.55 21.332 21.336 21.332h64v64c0 11.781 9.55 21.336 21.332 21.336zM17.066 405.336v-42.668a4.267 4.267 0 0 1 4.27-4.266h72.531a8.534 8.534 0 0 0 8.535-8.535v-72.531a4.266 4.266 0 0 1 4.266-4.266h42.668a4.266 4.266 0 0 1 4.266 4.266v72.531a8.533 8.533 0 0 0 8.53 8.535h72.536a4.266 4.266 0 0 1 4.266 4.266v42.668a4.266 4.266 0 0 1-4.266 4.266h-72.535a8.533 8.533 0 0 0-8.531 8.535v72.531a4.266 4.266 0 0 1-4.266 4.266h-42.668a4.266 4.266 0 0 1-4.266-4.266v-72.531a8.534 8.534 0 0 0-8.535-8.535H21.336c-2.36 0-4.27-1.91-4.27-4.266zm0 0"/></svg>