<svg height="511pt" viewBox="0 0 511.905 511" width="511pt" xmlns="http://www.w3.org/2000/svg"><path d="M503.316 129.684c-1.96 26.453-23.98 58.796-39.593 70.656a11.65 11.65 0 0 1-2.477 1.45c-16.383 7.51-185.855 87.21-191.059 89.515l12.032-32.426 20.734-55.809 181.164-85.078 1.11-.512a12.746 12.746 0 0 1 12.484 1 12.743 12.743 0 0 1 5.605 11.204zm0 0" fill="#607d8b"/><path d="M167.36 262.633a75.465 75.465 0 0 0-4.438-11.778c-19.738-39.68-67.453-56.464-107.692-37.886a77.9 77.9 0 0 0-38.996 104.875c18.93 38.285 64.121 55.566 103.766 39.68 1.363-.512 2.645-1.11 3.926-1.708l67.328-33.109 32.851-88.32zM47.124 305.727a46.933 46.933 0 0 1 58.5-64.028 46.934 46.934 0 0 1 3.879 86.64c-23.473 10.974-51.39.852-62.379-22.612zm0 0" fill="#f44335"/><path d="M357.566 9.11c-26.793 4.265-57.941 28.585-68.777 44.796a16.548 16.548 0 0 0-1.367 2.735L218.254 242.93l63.914 23.168 89.05-239.754a12.79 12.79 0 0 0-1.929-12.496 12.793 12.793 0 0 0-11.723-4.739zm0 0" fill="#cfd8dc"/><path d="M285.035 361.195a76.705 76.705 0 0 1 9.727 72.02 82.007 82.007 0 0 1-53.164 48.707 82.022 82.022 0 0 1-71.082-12.098 80.317 80.317 0 0 0 38.828 29.012c41.687 15.043 87.754-6 103.68-47.36 12.21-32.96.722-70.011-27.989-90.28zm0 0" fill="#c52828"/><path d="M484.117 117.992a121.481 121.481 0 0 1-38.656 64.086 11.834 11.834 0 0 1-2.477 1.453c-12.203 5.63-109.906 51.54-160.765 75.348l20.734-55.809zm0 0" fill="#cfd8dc"/><path d="M285.035 361.195a81.2 81.2 0 0 0-20.566-10.754 70.235 70.235 0 0 0-12.457-3.156l4.008-10.84 28.93-77.824-22.188-7.766-41.985-14.847-.937 2.648-32.856 88.32-26.28 70.825c-.427 1.367-.938 2.562-1.368 3.926a77.132 77.132 0 0 0 11.18 68.097 82.022 82.022 0 0 0 71.082 12.098 82.007 82.007 0 0 0 53.164-48.707 76.705 76.705 0 0 0-9.727-72.02zm-4.012 79.016c-9.273 23.922-35.933 36.078-60.074 27.394a46.07 46.07 0 0 1-25.43-21.421 44.717 44.717 0 0 1-2.73-37.032c9.274-23.922 35.91-36.109 60.074-27.48a48.446 48.446 0 0 1 7.082 3.16c19.813 10.656 28.79 34.246 21.078 55.379zm0 0" fill="#f44335"/><path d="m331.027 189.93-25.597 68.69-2.817 7.512-4.437 12.117c-11.52 5.375-20.395 9.473-24.832 11.605l8.789-23.722 2.472-6.57.344-.942 2.305-6.398h.082l18.773-50.602zm0 0" fill="#607d8b"/><path d="m220.777 236.094-.937 2.562-1.281 3.328v.082l-.34.856-2.305 6.144-27.902 75.262-23.64 11.606 3.327-8.957 29.442-79.192 6.398-3.156 9.305-4.61zm0 0" fill="#c52828"/><path d="M89.621 371.879a90.943 90.943 0 0 0 33.52-6.41c1.507-.59 2.89-1.219 4.359-1.887l.086-.066 44.32-20.235-19.14 51.567c-.555 1.476-1.067 2.879-1.508 4.351-13.73 44.942 10.754 92.656 55.27 107.711a90.921 90.921 0 0 0 30.277 5.188c37.347.222 70.925-22.735 84.273-57.618a85.09 85.09 0 0 0-2.765-66.238 88.07 88.07 0 0 0-51.036-45.855c-1.324-.469-2.562-.805-3.882-1.196l17.765-47.828 183.68-83.851a21.266 21.266 0 0 0 4.078-2.422c16.102-12.281 40.652-46.676 42.922-76.8a20.652 20.652 0 0 0-8.914-18.653 21.326 21.326 0 0 0-21.25-1.953L322.352 182.48l56.89-153.183a21.328 21.328 0 0 0-3.531-21.102A20.767 20.767 0 0 0 356.27.711c-30.395 4.777-63.395 31.691-74.57 48.504a21.17 21.17 0 0 0-2.247 4.453L213.09 232.355l-40.86 18.657c-.535-1.274-1.023-2.563-1.636-3.817-21.778-43.84-74.442-62.453-118.93-42.035a87.55 87.55 0 0 0-46.523 50.094 85.062 85.062 0 0 0 3.414 66.3c15.132 30.934 46.629 50.485 81.066 50.325zm399.156-246.613a4.453 4.453 0 0 1 4.395.418 3.703 3.703 0 0 1 1.707 3.41c-1.813 23.894-22.684 54.136-36.277 64.504a4.04 4.04 0 0 1-.809.46L289.598 270.86l24.414-65.707zM295.445 59.633a4.63 4.63 0 0 1 .453-.953c9.461-14.211 38.723-37.285 63.028-41.106A3.857 3.857 0 0 1 362.5 19a4.452 4.452 0 0 1 .742 4.352l-119.168 320.93a6.97 6.97 0 0 0-.129.808 6.46 6.46 0 0 0-.297.793 6.1 6.1 0 0 0 0 .855 8.4 8.4 0 0 0 .434 3.242c.184.52.414 1.024.691 1.504.266.454.575.883.922 1.278.356.414.754.789 1.188 1.117.445.332.926.621 1.433.855.239.172.489.325.75.461.282.063.567.102.852.13.254.116.52.214.785.296a63.272 63.272 0 0 1 10.934 2.84 71.169 71.169 0 0 1 41.242 37.012 68.15 68.15 0 0 1 2.191 53.015c-14.379 36.953-55.574 55.723-92.894 42.328-35.84-12.039-55.617-50.382-44.645-86.562.367-1.18.766-2.27 1.203-3.414v-.05zM21.191 261.098a70.657 70.657 0 0 1 37.547-40.364c36.035-16.617 78.754-1.605 96.469 33.903a59.916 59.916 0 0 1 3.883 10.242c.07.246.246.426.332.664s.05.426.144.633c.227.406.48.797.762 1.168.14.25.297.488.469.719a8.277 8.277 0 0 0 2.168 1.867c.195.101.398.195.605.273.684.344 1.41.59 2.16.735.282.058.567.101.852.125.25 0 .477.105.719.105a8.88 8.88 0 0 0 .945-.207c.422.004.84-.02 1.254-.074.266-.078.453-.258.7-.352.214-.035.425-.086.632-.144l33.816-15.438-24.414 65.75-59.875 27.305-.062.055c-1.14.519-2.219 1.023-3.453 1.5-35.473 14.257-75.942-1.16-92.93-35.407a68.099 68.099 0 0 1-2.723-53.058zm0 0"/><path d="M89.715 341.313a55.272 55.272 0 0 0 23.441-5.243c25.621-12.004 38.102-41.37 28.957-68.148-9.14-26.777-36.976-42.383-64.59-36.207-27.613 6.172-46.156 32.14-43.027 60.262 3.129 28.12 26.922 49.382 55.219 49.336zM73.32 251.07c19.203-9 42.067-.726 51.067 18.477s.73 42.062-18.473 51.066c-19.203 9-42.066.73-51.066-18.468a38.266 38.266 0 0 1-1.399-29.387A38.264 38.264 0 0 1 73.32 251.07zm144.797 224.598a56.081 56.081 0 0 0 18.703 3.207c23.125.129 43.907-14.094 52.164-35.691a52.809 52.809 0 0 0-1.707-41.106 54.603 54.603 0 0 0-31.574-28.418c-28.535-10.168-59.98 4.246-70.902 32.504a52.91 52.91 0 0 0 1.707 41.098 54.61 54.61 0 0 0 31.61 28.406zm-17.316-63.531a38.396 38.396 0 0 1 36.113-24.582c4.465 0 8.899.761 13.11 2.25a37.613 37.613 0 0 1 21.8 19.55 35.846 35.846 0 0 1 1.16 27.922c-7.632 19.555-29.46 29.461-49.203 22.332a37.562 37.562 0 0 1-21.812-19.558 35.846 35.846 0 0 1-1.168-27.914zm42.984-139.692a8.385 8.385 0 0 0 10.727-4.98 8.298 8.298 0 0 0-.297-6.367 8.282 8.282 0 0 0-4.73-4.266 8.384 8.384 0 0 0-10.727 4.98 8.28 8.28 0 0 0 .297 6.368 8.259 8.259 0 0 0 4.73 4.265zm91.406-46.84a8.534 8.534 0 0 0 11.426 3.895l52.098-25.602a8.534 8.534 0 1 0-7.535-15.308l-52.055 25.601a8.537 8.537 0 0 0-3.934 11.414zm94.5-37.895a8.507 8.507 0 0 0 3.754-.855l17.367-8.53a8.537 8.537 0 0 0 1.09-14.864 8.532 8.532 0 0 0-8.625-.445l-17.367 8.53a8.536 8.536 0 0 0 3.781 16.215zm0 0"/></svg>