<svg xmlns="http://www.w3.org/2000/svg" xml:space="preserve" style="enable-background:new 0 0 368 368" viewBox="0 0 368 368"><path style="fill:#fff;stroke-width:16.449;stroke-linecap:square" d="M7.101 58.333h353.041v254.128H7.101z"/><path d="M360 296v8c0 4.4-3.6 8-8 8H16c-4.4 0-8-3.6-8-8v-8l148.48-108L184 208l27.52-20L360 296z" style="fill:#cce4ff"/><path d="M352 48H16C7.176 48 0 55.176 0 64v240c0 8.824 7.176 16 16 16h336c8.824 0 16-7.176 16-16V64c0-8.824-7.176-16-16-16zm0 232.288L225.12 188 352 95.712v184.576zM16 64h336v11.928l-145.176 105.6h-.008L184 198.112l-22.816-16.584h-.008L16 75.928V64zm0 31.712L142.88 188 16 280.288V95.712zM352 304H16v-3.928l140.488-102.184 22.816 16.584a7.996 7.996 0 0 0 9.408 0l22.816-16.584L352 300.072V304z" style="fill:#007aff"/></svg>