<svg xmlns="http://www.w3.org/2000/svg" height="1082.499" viewBox="1 1 862.59 1082.499" width="862.59"><path style="fill:#ed694a;stroke-width:2.11425591" d="M475.173-224.234c-22.559-24.629-57.63-57.871-72.55 17.19-5.075 25.52-16.93 45.194-27.088 61.033-10.95-55.418-43.894-112.78-74.936-151.456-11.616-14.47-52.83-71.993-60.749-168.225-1.182-14.362-18.242-21.107-28.912-11.42C108.963-384.54 52.99-257.224 50.912-113.891c0 0-42.463-35.793-65.532-102.38-6.211-17.93-30.25-21.351-40.68-5.497a159.333 159.333 0 0 0-5.533 9.054c-78.678 139.118-116.525 308.057-81.536 465.231 58.501 263.219 445.482 336.807 650.351 171.369 200.442-161.86 136.728-463.118-32.809-648.12z" transform="translate(205.545 571.568)"/><path style="fill:#d8553a" d="M107.171 397.118c-16.357-75.135.957-155.818 37.296-222.648a123.957 123.957 0 0 1-2.629-6.894c-2.938-8.481-14.308-10.099-19.241-2.6a75.329 75.329 0 0 0-2.616 4.282c-37.213 65.8-55.114 145.705-38.565 220.045 12.621 56.786 57.569 94.9 111.92 112.149-42.4-20.539-75.604-55.748-86.165-104.334zm91.545-182.368c2.009-61.527 24.263-116.697 64.093-159.079a180.384 180.384 0 0 1-.608-6.005c-.571-6.851-8.345-10.287-13.37-5.745-46.585 42.118-74.979 101.727-75.998 172.075l8.719 6.771c4.294 3.335 10.112 3.19 14.213.135 2.447-2.074 2.798-5.204 2.951-8.152z" transform="translate(-108.954 1) scale(2.11426)"/><path style="fill:#f4a32c;stroke-width:2.11425591" d="M413.316-31.817c-16.66-18.191-42.566-42.746-53.585 12.696-3.747 18.848-12.506 33.382-20.005 45.082-8.088-40.934-32.423-83.304-55.35-111.87-8.58-10.687-39.02-53.173-44.87-124.256-.874-10.61-13.472-15.589-21.354-8.434-75.32 68.373-116.665 162.415-118.198 268.28 0 0-31.365-26.437-48.402-75.619-4.588-13.243-22.345-15.77-30.047-4.06a117.873 117.873 0 0 0-4.087 6.688C-40.697 79.445-68.652 204.227-42.81 320.32.402 514.74 286.233 569.094 437.554 446.897 585.603 327.346 538.542 104.83 413.316-31.817Z" transform="translate(205.545 571.568)"/><path style="fill:#e89528;stroke-width:2.11425591" d="M11.083 335.57c-22.88-113.484.819-235.255 51.064-336.655a195.06 195.06 0 0 1-10.599-24.85C46.96-39.18 29.203-41.709 21.5-29.998a117.181 117.181 0 0 0-4.086 6.69C-40.7 79.446-68.651 204.228-42.813 320.32c20.098 90.423 92.682 150.527 179.798 176.682C75.09 465.963 26.357 411.428 11.083 335.57Z" transform="translate(205.545 571.568)"/><path style="fill:#f4d44e;stroke-width:2.11425591" d="M356.849 143.848c-11.278-12.314-28.818-28.938-36.277 8.594-2.535 12.762-8.465 22.597-13.544 30.517-5.475-27.711-21.945-56.391-37.468-75.728-5.806-7.235-26.414-35.995-30.376-84.114-.592-7.182-9.119-10.554-14.455-5.708-50.987 46.285-78.974 109.945-80.012 181.608 0 0-21.233-17.897-32.764-51.188-3.106-8.965-15.126-10.675-20.34-2.749a79.542 79.542 0 0 0-2.767 4.527c-39.338 69.559-58.263 154.028-40.77 232.617 29.251 131.61 222.742 168.404 325.175 85.684 35.078-28.327 56.827-68.242 61.238-112.394 6.657-66.874-19.08-147.763-77.64-211.666z" transform="translate(205.545 571.568)"/><path style="fill:#eae9e8;stroke-width:2.11425591" d="M304.447 306.861c-6.284-6.86-16.053-16.121-20.21 4.787-1.412 7.11-4.715 12.59-7.546 17.003-3.05-15.439-12.227-31.418-20.874-42.19-3.235-4.032-14.717-20.056-16.925-46.863-.33-4.002-5.082-5.878-8.053-3.182-28.405 25.788-44 61.254-44.577 101.18 0 0-11.829-9.97-18.254-28.52-1.732-4.995-8.428-5.949-11.33-1.53a43.22 43.22 0 0 0-1.54 2.522c-21.916 38.755-32.46 85.814-22.713 129.598 22.195 99.858 204.123 96.83 215.282-14.882 3.704-37.256-10.635-82.323-43.26-117.923z" transform="translate(205.545 571.568)"/><path style="fill:#f7e7a1;stroke-width:2.11425591" d="M174.663 459.485c-9.746-39.167.797-81.264 22.714-115.929.465-.738.983-1.497 1.539-2.256 2.905-3.951 9.6-3.1 11.33 1.368 6.426 16.593 18.255 25.513 18.255 25.513.476-29.346 11.106-55.986 30.631-77.352-4.366-6.047-17.724-20.627-20.242-51.227-.33-4.002-5.082-5.877-8.053-3.182-28.405 25.788-44 61.255-44.577 101.18 0 0-11.83-9.97-18.254-28.517-1.73-4.996-8.428-5.95-11.33-1.53a43.272 43.272 0 0 0-1.54 2.522c-21.916 38.752-32.46 85.813-22.713 129.597 9.02 40.583 46.074 64.973 87.04 70.86-22.099-10.853-39.083-28.038-44.8-51.047Z" transform="translate(205.545 571.568)"/><path style="fill:#d8553a" d="M184.598 68.045c21.625-17.589 21.577-50.496 0-68.045-21.625 17.588-21.578 50.496 0 68.045zm259.195 141.168c21.625-17.589 21.577-50.496 0-68.045-9.884 8.038-21.577 50.496 0 68.045zM60.785 222.606c15.585-12.677 15.551-36.392 0-49.041-7.123 5.793-15.551 36.393 0 49.041zm269.924-105.52c15.585-12.677 15.551-36.392 0-49.041-15.585 12.676-15.55 36.393 0 49.041z" transform="translate(-108.954 1) scale(2.11426)"/><path style="fill:#e89528;stroke-width:2.11425591" d="M141.992 32.68c7.567-89.331 41.68-168.762 98.96-229.316-.58-4.39-1.068-8.895-1.449-13.527-.873-10.61-13.472-15.589-21.354-8.434-59.685 54.18-97.991 124.491-112.102 204.02l-.02-.008c-1.047 5.899-2.345 14.491-3.165 21.242v.017a404.416 404.416 0 0 0-2.92 43.01c1.594.311 37.68 18.86 42.042-17.005z" transform="translate(205.545 571.568)"/><path style="fill:#e8c842" d="M196.43 459.481c-7.355-34.725-1.091-71.755 13.461-103.84a62.744 62.744 0 0 1-8.187-15.855c-1.47-4.24-7.154-5.049-9.621-1.3a37.63 37.63 0 0 0-1.309 2.141c-18.606 32.9-27.557 72.852-19.283 110.023 6.48 29.152 29.997 48.468 58.148 56.749-16.386-10.878-28.781-26.979-33.209-47.918zm47.321-110.657c2.438-17.425 9.565-36.624 20.784-52.675-1.222-4.532-2.183-9.653-2.652-15.348-.28-3.397-4.314-4.992-6.837-2.7-15.026 13.641-25.811 30.479-31.938 49.428l-.016-.004c-.964 2.977-2.327 7.909-3.153 11.802.007-.002.014-.002.021-.005a127.163 127.163 0 0 0-2.756 24.675c13.492 1.684 24.653-1.657 26.547-15.173z" transform="translate(-108.954 1) scale(2.11426)"/><path d="M512 256c0 141.387-114.613 256-256 256S0 397.387 0 256 114.613 0 256 0s256 114.613 256 256Zm0 0" data-original="#18282D" style="fill:#18282d" transform="translate(190.63 566.429) scale(1.006)"/><path d="M411.984 411.98 256.004 256 100.012 411.992c-86.153-86.152-86.153-225.836 0-311.984 86.152-86.153 225.832-86.153 311.972 0 86.153 86.148 86.153 225.82 0 311.972zm0 0" data-original="#FF2751" data-old_color="#ff2751" style="fill:#28b24b" transform="translate(190.63 566.429) scale(1.006)"/><path d="M411.984 100.016c43.082 43.082 64.618 99.539 64.618 155.984H256.004Zm0 0" data-original="#28B24B" data-old_color="#28b24b" style="fill:#ff2751" transform="translate(190.63 566.429) scale(1.006)"/><path d="M256.004 256h220.598c0 56.465-21.547 112.898-64.618 155.98zm0 0" data-original="#39D365" data-old_color="#39d365" style="fill:#d10f46" transform="translate(190.63 566.429) scale(1.006)"/><path d="M411.984 100.008v.008L256.004 256V35.39c56.453 0 112.91 21.544 155.98 64.618zm0 0" data-original="#F4CA19" data-old_color="#f4ca19" style="fill:#e29b0e" transform="translate(190.63 566.429) scale(1.006)"/><path d="M256.004 35.39V256L100.012 100.008C143.09 56.934 199.547 35.39 256.004 35.39Zm0 0" data-original="#E29B0E" data-old_color="#e29b0e" style="fill:#f4ca19" transform="translate(190.63 566.429) scale(1.006)"/><path d="M256.004 256 100.012 411.992C56.93 368.922 35.395 312.453 35.395 256Zm0 0" data-original="#D10F46" data-old_color="#d10f46" style="fill:#39d365" transform="translate(190.63 566.429) scale(1.006)"/><path d="M360.8 256c0 57.879-46.921 104.8-104.8 104.8S151.2 313.88 151.2 256 198.12 151.2 256 151.2 360.8 198.12 360.8 256zm0 0" data-original="#18282D" style="fill:#18282d" transform="translate(190.63 566.429) scale(1.006)"/><path d="M425.254 163.195 243.71 240.688l18.59 33.902zm0 0" data-original="#FFF" style="fill:#fff" transform="translate(190.63 566.429) scale(1.006)"/><path d="M295.988 255.996c0 22.086-17.902 39.988-39.988 39.988-22.082 0-39.984-17.902-39.984-39.988 0-22.082 17.902-39.988 39.984-39.988 22.086 0 39.988 17.906 39.988 39.988zm0 0" data-original="#E6E6E6" style="fill:#e6e6e6" transform="translate(190.63 566.429) scale(1.006)"/><g style="fill:#31474c"><path d="M337.36 464.215h-30.266c-5.477 0-9.914-4.438-9.914-9.91v-65.86c0-5.472 4.437-9.91 9.914-9.91h30.265c5.473 0 9.91 4.438 9.91 9.91v65.86c0 5.472-4.437 9.91-9.91 9.91zm-66.227 0h-30.266c-5.476 0-9.914-4.438-9.914-9.91v-65.86c0-5.472 4.438-9.91 9.914-9.91h30.266c5.476 0 9.914 4.438 9.914 9.91v65.86c0 5.472-4.438 9.91-9.914 9.91zm-66.227 0h-30.265c-5.473 0-9.91-4.438-9.91-9.91v-65.86c0-5.472 4.437-9.91 9.91-9.91h30.265c5.477 0 9.914 4.438 9.914 9.91v65.86c0 5.472-4.437 9.91-9.914 9.91zm0 0" data-original="#000000" class="active-path" data-old_color="#000000" style="fill:#18282d" transform="translate(190.63 566.429) scale(1.006)"/></g></svg>