<svg height="512pt" viewBox="-17 0 512 512.001" width="512pt" xmlns="http://www.w3.org/2000/svg"><path d="M332.8 68.27v102.398L187.735 469.336H34.133c-14.137 0-25.598-11.465-25.598-25.602V68.27c0-14.141 11.461-25.602 25.598-25.602h273.066c14.14 0 25.602 11.46 25.602 25.602zm0 0" fill="#4e342e"/><path d="M307.2 68.27v102.398L162.132 469.336h-128c-14.137 0-25.598-11.465-25.598-25.602V68.27c0-14.141 11.461-25.602 25.598-25.602h247.469c14.136 0 25.597 11.46 25.597 25.602zm0 0" fill="#795548"/><path d="M258.477 76.973v.086H83.883l.086-.172 15.785-30.293 13.312-25.43a23.894 23.894 0 0 1 21.25-12.629h73.813a23.954 23.954 0 0 1 21.246 12.63l13.227 25.429 15.789 30.379zm0 0" fill="#607d8b"/><path d="M281.602 102.402C281.602 116.54 270.14 128 256 128H85.332a25.603 25.603 0 0 1-23.629-15.805 25.606 25.606 0 0 1 5.54-27.886 24.749 24.749 0 0 1 15.105-7.25 9.236 9.236 0 0 1 1.535-.172h.086l148.82.086h25.688c13.144 1.175 23.199 12.23 23.125 25.43zm0 0" fill="#607d8b"/><path d="m232.79 76.973-148.821-.086 15.785-30.293 13.312-25.43a23.894 23.894 0 0 1 21.25-12.629h48.211a23.96 23.96 0 0 1 21.25 12.63l13.227 25.429zm0 0" fill="#cfd8dc"/><path d="M256 102.402C256 116.54 244.54 128 230.402 128H85.332a25.603 25.603 0 0 1-23.629-15.805 25.606 25.606 0 0 1 5.54-27.886 24.749 24.749 0 0 1 15.105-7.25h150.527v-.086c.203-.016.406.015.598.086C246.37 78.48 256.102 89.426 256 102.402zm0 0" fill="#cfd8dc"/><path d="M187.734 59.734c0 9.426-7.64 17.067-17.066 17.067s-17.066-7.64-17.066-17.067 7.64-17.066 17.066-17.066 17.066 7.64 17.066 17.066zm0 0" fill="#e6e7e8"/><path d="M469.332 256v221.867c0 14.14-11.46 25.602-25.598 25.602H213.332c-14.137 0-25.598-11.461-25.598-25.602V196.27c0-14.141 11.461-25.602 25.598-25.602h162.137zm0 0" fill="#ff9801"/><path d="M443.734 256v221.867c0 14.14-11.46 25.602-25.601 25.602H213.332c-14.137 0-25.598-11.461-25.598-25.602V196.27c0-14.141 11.461-25.602 25.598-25.602h136.535zm0 0" fill="#fec108"/><path d="M469.332 256h-76.797c-9.426 0-17.066-7.64-17.066-17.066v-68.266zm0 0" fill="#fdd834"/><path d="M170.668 85.336c14.137 0 25.598-11.465 25.598-25.602s-11.461-25.601-25.598-25.601c-14.14 0-25.602 11.465-25.602 25.601s11.461 25.602 25.602 25.602zm0-34.137c4.71 0 8.531 3.824 8.531 8.535a8.533 8.533 0 1 1-17.066 0c0-4.71 3.82-8.535 8.535-8.535zm0 0"/><path d="M307.2 34.133h-61.438l-8.84-16.895A32.3 32.3 0 0 0 208.086 0h-73.797a32.266 32.266 0 0 0-28.824 17.238l-8.809 16.895H34.133C15.28 34.133 0 49.418 0 68.27v375.464c0 18.852 15.281 34.133 34.133 34.133h145.066c0 18.852 15.285 34.133 34.133 34.133h230.402c18.852 0 34.133-15.281 34.133-34.133V256c0-.188-.094-.348-.11-.535a8.484 8.484 0 0 0-.452-2.27 8.239 8.239 0 0 0-.36-.855 8.458 8.458 0 0 0-1.246-1.852c-.172-.195-.289-.41-.476-.59-.059-.05-.086-.125-.145-.18l-93.867-85.331a8.294 8.294 0 0 0-2.277-1.45c-.192-.085-.403-.12-.598-.187a8.595 8.595 0 0 0-2.426-.496c-.152 0-.281-.086-.441-.086h-34.137V68.27c0-18.852-15.281-34.137-34.133-34.137zm-186.598-9.02a15.481 15.481 0 0 1 13.687-8.047h73.797a15.477 15.477 0 0 1 13.652 8.047l29.14 55.895c.224.32.47.62.735.906.235.34.492.664.778.961a8.272 8.272 0 0 0 1.808 1.426c.207.113.395.23.614.336a8.27 8.27 0 0 0 2.562.75c.102 0 .18.074.273.086 8.86 1.101 15.372 8.843 14.942 17.761-.434 8.918-7.664 15.993-16.59 16.235H85.332a17.066 17.066 0 0 1-15.746-10.54 17.064 17.064 0 0 1 3.691-18.585 16.568 16.568 0 0 1 10.145-4.797c.164 0 .316.05.476.05a8.527 8.527 0 0 0 7.579-4.59zm-86.47 435.688c-9.425 0-17.066-7.64-17.066-17.067V68.27c0-9.426 7.641-17.07 17.067-17.07h53.633l-9.258 17.855c-15.89 3.18-27.32 17.14-27.309 33.347 0 18.852 15.285 34.133 34.133 34.133H256c17.25.059 31.813-12.8 33.887-29.926 2.074-17.12-9-33.086-25.762-37.148l-9.516-18.262h52.59c9.426 0 17.067 7.645 17.067 17.07v93.864H213.332c-18.848 0-34.133 15.285-34.133 34.137V460.8zm409.602 34.133H213.332c-9.422 0-17.066-7.641-17.066-17.067V196.27c0-9.426 7.644-17.07 17.066-17.07h153.602v59.734c0 14.14 11.46 25.601 25.601 25.601h68.266v213.332c0 9.426-7.64 17.067-17.067 17.067zm-51.199-247.465a8.534 8.534 0 0 1-8.535-8.535V189.96l63.258 57.508zm0 0"/><path d="M426.668 281.602H230.402a8.533 8.533 0 1 0 0 17.066h196.266c4.71 0 8.531-3.82 8.531-8.535a8.532 8.532 0 0 0-8.531-8.531zm0 42.668H230.402a8.533 8.533 0 1 0 0 17.066h196.266c4.71 0 8.531-3.82 8.531-8.535a8.532 8.532 0 0 0-8.531-8.531zm0 42.664H230.402a8.534 8.534 0 1 0 0 17.066h196.266c4.71 0 8.531-3.82 8.531-8.531a8.533 8.533 0 0 0-8.531-8.535zm0 42.668H230.402a8.533 8.533 0 1 0 0 17.066h196.266c4.71 0 8.531-3.82 8.531-8.535a8.532 8.532 0 0 0-8.531-8.531zm0 42.668H230.402a8.533 8.533 0 1 0 0 17.066h196.266c4.71 0 8.531-3.82 8.531-8.535a8.532 8.532 0 0 0-8.531-8.531zm-384-307.204a8.534 8.534 0 0 0-8.535 8.536v25.597a8.534 8.534 0 1 0 17.066 0v-25.597a8.533 8.533 0 0 0-8.531-8.536zm0 59.734a8.534 8.534 0 0 0-8.535 8.536V332.8a8.534 8.534 0 1 0 17.066 0V213.336a8.533 8.533 0 0 0-8.531-8.535zm0 0"/></svg>