<svg xmlns="http://www.w3.org/2000/svg" width="512" height="512" viewBox="0 0 458.802 458.802" style="enable-background:new 0 0 512 512" xml:space="preserve"><g xmlns="http://www.w3.org/2000/svg"><path d="m312.192 244.732-4.337-23.951c-1.388-5.458-7.096-10.46-12.692-11.116 0 0-14.264-1.664-20.296-12.887-6.042-11.228.435-24.033.435-24.033 2.54-5.023 1.654-12.667-1.971-16.973 0 0-2.985-3.548-8.484-8.801-5.489-5.258-9.165-8.079-9.165-8.079-4.465-3.43-12.134-3.978-17.044-1.219 0 0-12.508 7.04-23.992 1.51-11.484-5.53-13.768-19.702-13.768-19.702-.896-5.56-6.139-11.049-11.653-12.196l-24.131-3.267c-5.622-.348-12.145 3.548-14.5 8.668 0 0-5.99 13.01-18.514 15.288-12.544 2.278-22.728-7.859-22.728-7.859-3.988-3.968-11.459-5.34-16.599-3.041l-21.437 11.581c-4.756 3.011-7.747 9.994-6.636 15.519 0 0 2.821 14.049-5.985 23.26-8.806 9.201-22.968 7.009-22.968 7.009-5.565-.86-12.411 2.432-15.206 7.322L9.902 203.69c-2.068 5.233-.374 12.646 3.768 16.456 0 0 10.568 9.718 8.852 22.359-1.715 12.611-14.444 19.164-14.444 19.164-5.012 2.575-8.617 9.272-8.013 14.868l4.337 23.967c1.388 5.458 7.101 10.46 12.692 11.11 0 0 14.254 1.649 20.28 12.882 6.036 11.218-.43 24.018-.43 24.018-2.54 5.028-1.649 12.672 1.976 16.978 0 0 2.985 3.548 8.479 8.812 5.489 5.238 9.17 8.069 9.17 8.069 4.465 3.425 12.14 3.973 17.044 1.213 0 0 12.503-7.025 23.987-1.495 11.479 5.519 13.768 19.697 13.768 19.697.901 5.555 6.144 11.044 11.658 12.191l24.131 3.267c5.622.348 12.145-3.553 14.5-8.668 0 0 5.98-13.01 18.504-15.268 12.539-2.278 22.723 7.839 22.723 7.839 3.988 3.968 11.464 5.34 16.604 3.041l21.437-11.581c4.756-3.011 7.747-9.989 6.636-15.508 0 0-2.821-14.06 5.985-23.26 8.806-9.211 22.973-7.014 22.973-7.014 5.565.865 12.411-2.432 15.212-7.322l10.614-21.919c2.068-5.233.374-12.646-3.768-16.456 0 0-10.568-9.718-8.858-22.359 1.72-12.621 14.454-19.169 14.454-19.169 5.008-2.577 8.618-9.268 8.019-14.87zm-103.291 66.381c-27.873 29.148-74.112 30.182-103.25 2.299-29.143-27.878-30.177-74.112-2.294-103.25 27.878-29.148 74.112-30.182 103.25-2.299s30.177 74.112 2.294 103.25z" fill="#1bb7ea" data-original="#1bb7ea"/><path d="M454.763 131.724s-11.116-6.671-13.399-15.898c-2.299-9.242 4.408-20.321 4.408-20.321 1.454-2.412 1.428-6.339-.061-8.724L434.959 72.25c-1.838-2.135-5.581-3.313-8.31-2.637 0 0-12.559 3.149-20.71-1.772-8.166-4.91-11.249-17.485-11.249-17.485-.671-2.734-3.466-5.484-6.211-6.103L370.6 41.55c-2.806-.2-6.292 1.613-7.741 4.029 0 0-6.651 11.095-15.892 13.394-9.242 2.299-20.321-4.398-20.321-4.398-2.412-1.459-6.333-1.428-8.719.061L303.39 65.389c-2.135 1.838-3.318 5.581-2.637 8.31 0 0 3.149 12.549-1.761 20.7-4.92 8.151-17.485 11.249-17.485 11.249-2.734.676-5.478 3.476-6.103 6.221l-2.698 17.869c-.2 2.811 1.608 6.292 4.024 7.741 0 0 11.1 6.661 13.384 15.892 2.299 9.231-4.408 20.311-4.408 20.311-1.454 2.412-1.428 6.333.067 8.724l10.752 14.525c1.833 2.14 5.576 3.323 8.305 2.642 0 0 12.564-3.128 20.716 1.772 8.151 4.91 11.243 17.49 11.243 17.49.676 2.734 3.471 5.478 6.221 6.108l17.859 2.688c2.811.2 6.292-1.608 7.752-4.024 0 0 6.661-11.085 15.892-13.384 9.236-2.299 20.321 4.408 20.321 4.408 2.412 1.459 6.333 1.428 8.719-.061l14.531-10.742c2.135-1.833 3.318-5.571 2.642-8.305 0 0-3.139-12.575 1.761-20.726 4.92-8.161 17.5-11.249 17.5-11.249 2.729-.671 5.478-3.471 6.103-6.216l2.698-17.864c.199-2.814-1.613-6.295-4.025-7.744zm-57.856 21.627c-10.373 17.198-32.712 22.758-49.915 12.39-17.203-10.358-22.748-32.712-12.401-49.91 10.368-17.208 32.722-22.748 49.92-12.401 17.199 10.374 22.744 32.722 12.396 49.921z" fill="#0071aa" data-original="#dadee0"/></g></svg>