<svg xmlns="http://www.w3.org/2000/svg" viewBox="0 0 508 508" style="enable-background:new 0 0 508 508" xml:space="preserve"><circle style="fill:#324a5e" cx="254" cy="254" r="254"/><path style="fill:#e6e9ee" d="M379.6 229.2c14-14 20.8-32 20.8-50.4 0-4.8-.4-9.6-1.6-14.4L350 213.2 314 194l-19.2-36 48.8-48.8c-4.8-1.2-9.6-1.6-14.4-1.6-18.4 0-36.4 6.8-50.4 20.8-20.8 20.8-26 51.2-15.6 76.8l-138.8 114c-20.8 17.2-22.4 48.8-3.2 68 19.2 19.2 50.8 17.6 68-3.2l114-138.8c8.4 3.2 17.6 5.2 26.4 5.2 18-.4 36-7.2 50-21.2zM136.4 371.6c-8.8-8.8-8.8-23.2 0-32s23.2-8.8 32 0 8.8 23.2 0 32-23.2 8.8-32 0z"/><path style="fill:#fff" d="m136 105.2-18.4-3.6-16 16 3.6 18.4 36.4 17.2 107.2 107.6 12-12-107.6-107.2z"/><path style="fill:#e6e9ee" d="M402.8 358 358 402.8c-4.4 4.4-12 4.4-16.4 0L224.4 285.6c-4.4-4.4-4.4-12 0-16.4l44.8-44.8c4.4-4.4 12-4.4 16.4 0l117.2 117.2c4.4 4.4 4.4 12 0 16.4z"/><path style="fill:#84dbff" d="m285.6 224.4 117.2 117.2c4.4 4.4 4.4 11.6 0 16.4L358 402.8c-4.4 4.4-11.6 4.4-16.4 0L224.4 285.6c-4.4-4.4-4.4-11.6 0-16.4l44.8-44.8c4.8-4.4 12-4.4 16.4 0z"/><path style="fill:#54c0eb" d="M376.8 356.4c-3.2 3.2-8.4 3.2-11.6 0l-94-94c-3.2-3.2-3.2-8.4 0-11.6 3.2-3.2 8.4-3.2 11.6 0l94 94c3.2 2.8 3.2 8.4 0 11.6zm20.4-20.4c-3.2 3.2-8.4 3.2-11.6 0l-94-94c-3.2-3.2-3.2-8.4 0-11.6L397.2 336zm-40.8 40.8c-3.2 3.2-8.4 3.2-11.6 0l-94-94c-3.2-3.2-3.2-8.4 0-11.6 3.2-3.2 8.4-3.2 11.6 0l94 94c3.2 2.8 3.2 8.4 0 11.6zM242 291.6l94 94c3.2 3.2 3.2 8.4 0 11.6L230.4 291.6c1.6-1.6 3.6-2.4 6-2.4 2 0 4 .8 5.6 2.4z"/></svg>