<svg xmlns="http://www.w3.org/2000/svg" viewBox="0 0 512 512" style="enable-background:new 0 0 512 512" xml:space="preserve"><path style="fill:#3d6deb" d="M123.177 505.18a23.929 23.929 0 0 0 1.713 1.547c.264.219.546.408.818.613.334.251.661.51 1.008.742.33.222.675.413 1.013.616.312.186.616.383.937.554.349.186.704.343 1.06.51.334.158.662.324 1.004.467.346.143.697.258 1.049.383.366.132.728.272 1.1.385.352.105.706.185 1.061.273.382.098.76.203 1.15.281.408.081.816.129 1.227.188.341.048.678.113 1.022.147.765.074 1.531.115 2.298.115s1.533-.04 2.296-.116c.346-.034.681-.099 1.022-.147.411-.059.819-.107 1.227-.188.389-.078.768-.185 1.15-.281.355-.088.709-.166 1.061-.273.372-.113.734-.253 1.1-.385.352-.126.703-.24 1.049-.383.343-.143.672-.309 1.004-.467.355-.166.711-.324 1.06-.51.321-.172.625-.368.937-.554.34-.203.683-.394 1.013-.616.349-.233.676-.492 1.008-.742.273-.205.554-.394.818-.613a23.929 23.929 0 0 0 1.713-1.547l116.359-116.361c9.089-9.087 9.089-23.824 0-32.912-9.087-9.089-23.824-9.089-32.912 0l-76.632 76.637V23.273C162.91 10.42 152.49 0 139.637 0s-23.273 10.42-23.273 23.273v409.27l-76.636-76.634c-9.087-9.089-23.824-9.089-32.912 0-9.089 9.087-9.089 23.823 0 32.912L123.177 505.18zM387.113 5.274c-.261-.216-.538-.402-.807-.604-.34-.254-.67-.515-1.021-.751-.327-.219-.667-.408-1.002-.608-.316-.189-.625-.388-.953-.562-.343-.183-.694-.338-1.046-.504-.338-.16-.67-.329-1.016-.472-.341-.141-.689-.256-1.035-.379-.369-.133-.737-.276-1.116-.389-.346-.104-.694-.18-1.043-.268-.388-.098-.771-.206-1.167-.285-.399-.079-.802-.126-1.202-.183-.349-.051-.694-.116-1.049-.152-.74-.073-1.482-.11-2.225-.112-.022-.002-.042-.005-.067-.005s-.045.003-.07.003c-.743.003-1.485.039-2.225.112-.355.036-.7.101-1.049.152-.402.057-.805.104-1.202.183-.396.078-.779.186-1.167.285-.349.088-.697.164-1.043.268-.379.115-.745.256-1.116.389-.346.124-.694.237-1.035.379-.348.143-.68.312-1.016.472-.352.164-.703.32-1.046.504-.327.174-.636.372-.953.562-.335.2-.675.389-1.002.608-.352.236-.681.496-1.021.751-.268.202-.546.388-.807.604a23.929 23.929 0 0 0-1.713 1.547l-116.357 116.36c-9.089 9.087-9.089 23.824 0 32.912 9.087 9.089 23.824 9.089 32.912 0l76.637-76.632v409.268c0 12.853 10.42 23.273 23.273 23.273s23.273-10.42 23.273-23.273V79.459l76.636 76.634a23.195 23.195 0 0 0 16.455 6.816 23.186 23.186 0 0 0 16.455-6.817c9.089-9.087 9.089-23.824 0-32.912L388.826 6.82a23.678 23.678 0 0 0-1.713-1.546z"/></svg>