<svg height="512pt" viewBox="0 0 512 512" width="512pt" xmlns="http://www.w3.org/2000/svg" xmlns:xlink="http://www.w3.org/1999/xlink"><linearGradient id="b" gradientUnits="userSpaceOnUse" x1="169.994" x2="299.493" y1="71.986" y2="349.055"><stop offset="0" stop-color="#00c3ff"/><stop offset="1" stop-color="#00b0ed"/></linearGradient><linearGradient id="a"><stop offset="0" stop-color="#00b0ed" stop-opacity="0"/><stop offset="1" stop-color="#00a2ce"/></linearGradient><linearGradient id="c" gradientUnits="userSpaceOnUse" x1="364.283" x2="-379.586" xlink:href="#a" y1="314.087" y2="-84.952"/><linearGradient id="d" gradientUnits="userSpaceOnUse" x1="256" x2="256" xlink:href="#a" y1="437.383" y2="504.472"/><linearGradient id="e" gradientUnits="userSpaceOnUse" x1="489.421" x2="239.294" xlink:href="#a" y1="482.072" y2="231.945"/><path d="M420.422 503.234c-109.504 11.688-219.34 11.688-328.844 0-43.664-4.66-78.152-39.148-82.812-82.816-11.688-109.504-11.688-219.336 0-328.84 4.66-43.664 39.148-78.152 82.812-82.812 109.504-11.688 219.336-11.688 328.84 0 43.668 4.66 78.156 39.148 82.816 82.812 11.688 109.504 11.688 219.336 0 328.84-4.66 43.668-39.144 78.156-82.812 82.816zm0 0" fill="url(#b)"/><path d="M475.387 110.098c-4.133-38.746-34.735-69.352-73.485-73.489-97.172-10.367-194.632-10.367-291.804 0-38.746 4.137-69.352 34.743-73.489 73.489-10.367 97.172-10.367 194.632 0 291.8 4.137 38.75 34.743 69.356 73.489 73.489 97.172 10.37 194.632 10.37 291.8 0 38.75-4.133 69.356-34.739 73.489-73.489 10.37-97.168 10.37-194.628 0-291.8zm0 0" fill="url(#c)"/><path d="M7.672 409.805c.351 3.539.715 7.078 1.094 10.617 4.66 43.664 39.148 78.152 82.816 82.812 109.504 11.688 219.336 11.688 328.84 0 43.668-4.66 78.152-39.148 82.812-82.812.38-3.54.743-7.078 1.098-10.617zm0 0" fill="url(#d)"/><path d="M511.89 238.008 405.614 131.734c-11.91 6.809-22.406 10.586-30.312 12.68-4.446 1.191-8.074 1.84-10.684 2.195-11.984-12.285-28.719-19.914-47.242-19.914-36.445 0-65.996 29.547-65.996 66 0 1.317.035 2.618.121 3.914.176 3.16.578 6.266 1.2 9.286-15.216-.227-64.669-4.29-111.833-44.72-.004 0-.004-.003-.004-.003h-.004l-22.242-22.246s-26.094 45.543 12.27 80.101a73.208 73.208 0 0 0 5.562 5.559c.16.18.328.355.489.535-5.036-.34-20.18-1.848-28.946-8.039 0 0-1.762 27.836 21.43 48.328l18.726 18.887c-5.703.473-12.011.36-16.398-1.563 0 0 3.883 16.489 18.89 29.684l26.235 26.371c-15.738 9.168-43.29 20.64-79.555 17.711L256.465 512a1548.15 1548.15 0 0 0 163.957-8.766c43.668-4.66 78.156-39.148 82.816-82.812a1548.862 1548.862 0 0 0 8.653-182.414zm0 0" fill="url(#e)"/><path d="M414.684 157.367c-11.329 5.926-28.391 8.664-34.047 9.453l-.14-.797c19.23-11.894 25.116-34.289 25.116-34.289-11.91 6.809-22.406 10.586-30.312 12.68-4.446 1.191-8.074 1.836-10.684 2.195-11.984-12.289-28.719-19.914-47.242-19.914-36.445 0-65.996 29.543-65.996 66 0 1.313.035 2.618.121 3.91.176 3.16.578 6.266 1.2 9.286-17.641-.262-81.317-5.672-134.083-66.965 0 0-29.383 51.265 20.016 86.285 0 0-20.016-.625-30.64-8.129 0 0-3.126 49.398 53.769 65.023 0 0-20.004 5.008-30.016.63 0 0 10.008 42.515 60.027 45.648 0 0-35.875 32.844-94.457 28.117 28.813 18.242 62.973 28.8 99.598 28.8 102.98 0 186.465-83.48 186.465-186.46 0-1.285-.012-2.57-.04-3.856.028-.761.04-1.52.04-2.289 0-.535-.012-1.07-.02-1.605 19.04-12.688 31.325-33.723 31.325-33.723zm0 0" fill="#fff"/></svg>