<svg xmlns="http://www.w3.org/2000/svg" height="29.76" width="155"><rect style="stroke-width:1.3928" rx="5.061" height="29.762" width="154.998" y=".002" x=".008" fill="#f6c915"/><svg y="7" x="7" width="16" height="16" viewBox="0 0 80 80"><path d="M63.65 63.04c-3.571 0-6.373-.466-8.41-1.396-2.037-.93-3.495-2.199-4.375-3.809-.88-1.609-1.308-3.457-1.282-5.544.025-2.086.313-4.311.868-6.675l9.579-40.05 11.69-1.81-10.484 43.44a13.563 13.563 0 0 0-.34 2.489c-.025.754.114 1.421.416 1.999.302.579.817 1.044 1.546 1.395.729.353 1.747.579 3.055.679l-2.263 9.278m42.24-24.956c0 3.671-.604 7.03-1.811 10.07-1.207 3.043-2.88 5.669-5.01 7.881-2.138 2.213-4.702 3.935-7.693 5.167-2.992 1.231-6.248 1.848-9.767 1.848-1.71 0-3.42-.151-5.13-.453l-3.393 13.651H61.924l12.52-52.19c2.01-.603 4.31-1.143 6.9-1.622 2.59-.477 5.394-.716 8.41-.716 2.816 0 5.243.428 7.279 1.282 2.037.855 3.708 2.024 5.02 3.507 1.307 1.484 2.274 3.219 2.904 5.205.627 1.987.942 4.11.942 6.373M78.52 53.544c.854.202 1.91.302 3.167.302 1.96 0 3.746-.364 5.355-1.094a11.799 11.799 0 0 0 4.11-3.055c1.132-1.307 2.01-2.877 2.64-4.714.629-1.835.944-3.858.944-6.071 0-2.161-.48-3.998-1.433-5.506-.956-1.508-2.615-2.263-4.978-2.263-1.61 0-3.118.151-4.525.453l-5.28 21.948" fill="#1a171b"/></svg><text xml:space="preserve" style="font-style:normal;font-weight:400;font-size:11.5266px;line-height:125%;font-family:sans-serif;letter-spacing:0;word-spacing:0;fill:#1a171b;fill-opacity:1;stroke:none;stroke-width:.288166px;stroke-linecap:butt;stroke-linejoin:miter;stroke-opacity:1" x="45.27" y="18.954"><tspan x="45.27" y="18.954" style="font-style:normal;font-variant:normal;font-weight:700;font-stretch:normal;font-family:sans-serif;-inkscape-font-specification:'sans-serif Bold';fill:#1a171b;fill-opacity:1;stroke-width:.288166px">Be my patron</tspan></text></svg>